<?xml version="1.0" encoding="UTF-8"?>
<svg version="1.1" xmlns="http://www.w3.org/2000/svg" width="500" height="500">
<path d="M0 0 C2.64 0 5.28 0 8 0 C8 5.94 8 11.88 8 18 C8.66 18 9.32 18 10 18 C10 17.34 10 16.68 10 16 C18.6656049 11.87000958 25.84904796 10.3596994 35.125 13.4375 C41.44057308 16.22671208 46.04762687 21.22244418 49.19921875 27.3203125 C50.22869395 30.76528804 50.30164523 33.84457045 50.3125 37.4375 C50.32925781 38.71496094 50.34601563 39.99242187 50.36328125 41.30859375 C49.6899678 48.15032716 45.9973087 53.45699209 41 58 C34.13764687 62.86847869 27.30394471 64.36757983 19 63 C12.9291357 60.93134666 8.1673653 57.92506809 4 53 C3.443125 52.38125 2.88625 51.7625 2.3125 51.125 C-1.30073744 45.27499653 -1.28627072 39.04252526 -1.23046875 32.3828125 C-1.23001053 31.48505096 -1.22955231 30.58728943 -1.2290802 29.662323 C-1.22607482 27.77812364 -1.21824033 25.89392638 -1.20581055 24.00976562 C-1.18742506 21.11319284 -1.18530198 18.21693785 -1.18554688 15.3203125 C-1.18063592 13.48697638 -1.17480946 11.65364243 -1.16796875 9.8203125 C-1.16685593 8.95060822 -1.1657431 8.08090393 -1.16459656 7.18484497 C-1.11608908 1.11608908 -1.11608908 1.11608908 0 0 Z M10.61328125 27.8671875 C8.18198495 32.2520517 7.27964923 35.95754463 8 41 C9.73344007 46.65534822 12.51964641 50.29089681 17.71875 53.15234375 C21.85140646 54.68793699 25.68359117 54.77622814 30 54 C33.38837017 52.51894239 33.38837017 52.51894239 36 50 C36.94875 49.195625 37.8975 48.39125 38.875 47.5625 C41.96890113 43.58896032 41.80414633 39.06069808 41.62109375 34.20703125 C40.62441939 29.06068127 38.04869283 26.17928931 34 23 C26.17430362 18.05745492 15.98867965 20.62932712 10.61328125 27.8671875 Z " fill="#010101" transform="translate(35,217)"/>
<path d="M0 0 C3.53145508 3.07557633 6.28545068 6.08357274 7.93359375 10.50390625 C8 13 8 13 6.55078125 15.1328125 C3.31917115 17.49837089 -0.04034921 18.6719417 -3.8125 19.875 C-5.32905112 20.38265836 -6.84465921 20.89314143 -8.359375 21.40625 C-9.12701172 21.66535156 -9.89464844 21.92445313 -10.68554688 22.19140625 C-14.35644091 23.47389581 -17.95990673 24.91331896 -21.5625 26.375 C-22.21130127 26.63780762 -22.86010254 26.90061523 -23.52856445 27.17138672 C-25.02023714 27.77799621 -26.51031918 28.3885153 -28 29 C-28 29.99 -28 30.98 -28 32 C-24.29946815 35.66952181 -20.03208419 37.35934214 -14.875 37.5625 C-10.25335442 37.30731712 -7.52623318 36.10644351 -4 33 C-3.0409375 31.6078125 -3.0409375 31.6078125 -2.0625 30.1875 C-1.381875 29.465625 -0.70125 28.74375 0 28 C3.75 28.1875 3.75 28.1875 7 29 C7.42973378 31.93651413 7.47674382 34.1373207 6.015625 36.78125 C1.41762315 42.67082541 -4.58216059 46.34337198 -11.99609375 47.4453125 C-20.29410877 47.76243409 -26.66103521 45.64322223 -33.3125 40.75 C-39.13362751 34.79349744 -41.36097658 27.73097107 -41.29296875 19.515625 C-40.63326424 13.8509623 -38.13346137 8.70019206 -35 4 C-34.34 4 -33.68 4 -33 4 C-33 3.34 -33 2.68 -33 2 C-22.13510658 -4.51893605 -11.47018579 -6.88594766 0 0 Z M-29.9375 12.5 C-31.00480703 15.01131067 -31.61466751 17.30267258 -32 20 C-27.05040806 19.27153183 -22.61783533 17.40288729 -18 15.5625 C-16.80890625 15.09360352 -16.80890625 15.09360352 -15.59375 14.61523438 C-11.72396199 13.08989294 -7.86044023 11.54884598 -4 10 C-7.51607065 6.24144172 -10.04608627 4.86159603 -15.1875 4.625 C-21.53775613 4.69751516 -26.0960344 7.54327019 -29.9375 12.5 Z " fill="#020201" transform="translate(217,233)"/>
<path d="M0 0 C7.45003718 5.04415361 11.14700682 11.27079293 13 20 C13.24829683 23.99682655 13.23111431 27.99623311 13.25 32 C13.270625 33.093125 13.29125 34.18625 13.3125 35.3125 C13.32023437 36.8903125 13.32023437 36.8903125 13.328125 38.5 C13.34214355 39.93859375 13.34214355 39.93859375 13.35644531 41.40625 C12.94434589 44.40497894 11.99302691 45.76886228 10 48 C7.03 47.505 7.03 47.505 4 47 C3.505 45.02 3.505 45.02 3 43 C2.45730469 43.27714844 1.91460937 43.55429687 1.35546875 43.83984375 C0.28232422 44.38318359 0.28232422 44.38318359 -0.8125 44.9375 C-1.87404297 45.47697266 -1.87404297 45.47697266 -2.95703125 46.02734375 C-8.79980264 48.80908386 -15.33188275 49.03517419 -21.546875 47.28125 C-26.25600943 45.3217444 -29.72018962 42.9972689 -33 39 C-33.495 37.515 -33.495 37.515 -34 36 C-34.66 36 -35.32 36 -36 36 C-39.60123483 29.5477876 -39.90835985 23.28418087 -39 16 C-36.61502565 8.26208323 -32.1839435 2.89464361 -25.16015625 -1.02734375 C-17.23435558 -4.5445191 -7.54615127 -4.33633641 0 0 Z M-27.421875 12.76171875 C-30.15903562 17.38302076 -30.42349516 21.41795248 -29.6015625 26.671875 C-28.30047118 31.70726737 -25.9488823 34.27884945 -21.875 37.375 C-17.41066357 39.65997219 -12.89452008 39.81575335 -8 39 C-1.98448964 35.82818544 1.2932149 32.38150764 3.4921875 26.05078125 C4.52173646 21.89298739 3.31592268 18.81474796 1.8125 14.9375 C-0.88670867 10.56292043 -4.02778884 7.65740372 -9 6 C-16.59319201 4.95163029 -22.51024952 6.67616081 -27.421875 12.76171875 Z " fill="#020202" transform="translate(347,232)"/>
<path d="M0 0 C5.64540208 4.16658739 9.04021789 9.27117765 11 16 C11.50911002 20.80530275 11.46984225 25.54802845 11.375 30.375 C11.37371094 31.64472656 11.37242187 32.91445313 11.37109375 34.22265625 C11.28162062 43.57756907 11.28162062 43.57756907 9 47 C6.5625 47.5 6.5625 47.5 4 47 C2.1875 44.5 2.1875 44.5 1 42 C0.12601563 42.54140625 0.12601563 42.54140625 -0.765625 43.09375 C-7.55769282 46.93831669 -13.2385896 48.25084817 -21 47 C-28.35612291 44.71236121 -33.82504561 40.4595822 -38 34 C-40.8800865 28.02382051 -42.17555223 22.09782897 -40.30859375 15.58984375 C-37.10769645 6.71036715 -32.50358312 1.0943178 -24 -3 C-15.6398824 -5.53182423 -7.52955541 -4.27729366 0 0 Z M-29.5 12.0625 C-31.7930622 16.81241456 -31.76828145 21.8626028 -31 27 C-28.54432448 32.00230198 -25.0029693 35.49851535 -20 38 C-18.39924548 38.12182734 -16.79283863 38.17546598 -15.1875 38.1875 C-13.90939453 38.20876953 -13.90939453 38.20876953 -12.60546875 38.23046875 C-8.4693614 37.86460618 -5.90584484 36.92687025 -2.98046875 33.93359375 C0.48494568 29.10919327 3.10061326 25.2592449 2.55078125 19.16796875 C1.18979451 13.81089328 -1.62956533 9.56951953 -6.25 6.5 C-14.72822789 2.38042723 -23.70931377 4.96890937 -29.5 12.0625 Z " fill="#020201" transform="translate(128,233)"/>
<path d="M0 0 C0.66 0.33 1.32 0.66 2 1 C2 11.56 2 22.12 2 33 C4.64 30.69 7.28 28.38 10 26 C10.66 26 11.32 26 12 26 C12 25.34 12 24.68 12 24 C13.79296875 22.2734375 13.79296875 22.2734375 16.1875 20.375 C17.35345703 19.42753906 17.35345703 19.42753906 18.54296875 18.4609375 C21.33970371 16.79801401 22.80261205 16.53785653 26 17 C28 19 28 19 28.46875 21.29296875 C27.79556306 25.18062335 25.40136933 26.90657334 22.5 29.3125 C21.97535156 29.76689453 21.45070313 30.22128906 20.91015625 30.68945312 C19.61765847 31.8057012 18.31021858 32.90460622 17 34 C17.59555162 37.07743731 18.51126265 38.98129018 20.46875 41.41796875 C20.95730469 42.03220703 21.44585937 42.64644531 21.94921875 43.27929688 C22.46097656 43.90900391 22.97273438 44.53871094 23.5 45.1875 C24.01175781 45.82880859 24.52351563 46.47011719 25.05078125 47.13085938 C27.41894532 50.15858312 27.41894532 50.15858312 30 53 C30.04092937 55.33297433 30.04241723 57.66705225 30 60 C26.75 60.75 26.75 60.75 23 61 C20.5625 59.1875 20.5625 59.1875 19 57 C19 56.34 19 55.68 19 55 C18.34 55 17.68 55 17 55 C15.55473264 53.26451831 14.1912778 51.46024037 12.875 49.625 C12.15054687 48.62726563 11.42609375 47.62953125 10.6796875 46.6015625 C9 44 9 44 9 42 C5.51593463 43.40055878 5.51593463 43.40055878 3 46 C2.39316802 49.40428438 2.24971885 52.64585226 2.203125 56.1015625 C2 59 2 59 0 61 C-3 61.3125 -3 61.3125 -6 61 C-8.27121709 57.59317436 -8.24468887 56.42202816 -8.22705078 52.42700195 C-8.22689972 51.28604568 -8.22674866 50.14508942 -8.22659302 48.96955872 C-8.21627045 47.73823715 -8.20594788 46.50691559 -8.1953125 45.23828125 C-8.1924826 43.97735153 -8.18965271 42.71642181 -8.18673706 41.4172821 C-8.17743125 38.06839578 -8.15946703 34.71978209 -8.1373291 31.37097168 C-8.11685386 27.95241653 -8.10773176 24.5338332 -8.09765625 21.11523438 C-8.0755818 14.41008081 -8.04209362 7.70505615 -8 1 C-5.26094655 -0.36952673 -3.02912668 -0.12621361 0 0 Z " fill="#030303" transform="translate(421,220)"/>
<path d="M0 0 C1.625 1.9375 1.625 1.9375 2 4 C1.37845983 5.35495758 0.71536053 6.69214621 0 8 C-0.59014893 7.99476318 -1.18029785 7.98952637 -1.78833008 7.98413086 C-4.46304255 7.96333953 -7.13773801 7.95033299 -9.8125 7.9375 C-11.2056543 7.92493164 -11.2056543 7.92493164 -12.62695312 7.91210938 C-13.51962891 7.90888672 -14.41230469 7.90566406 -15.33203125 7.90234375 C-16.15421143 7.89710693 -16.9763916 7.89187012 -17.82348633 7.88647461 C-20.18172596 7.91258476 -20.18172596 7.91258476 -23 9 C-23 10.65 -23 12.3 -23 14 C-21.78183594 14.36351562 -20.56367188 14.72703125 -19.30859375 15.1015625 C-17.684613 15.60846978 -16.06093059 16.11633352 -14.4375 16.625 C-13.63763672 16.86089844 -12.83777344 17.09679687 -12.01367188 17.33984375 C-6.38801941 19.1308678 -1.92959321 21.4957232 2 26 C3.59121454 30.77364362 3.79879085 35.15016855 1.8125 39.75 C-0.68863234 42.85485394 -3.42673352 45.21336676 -7 47 C-16.75874708 47.94473116 -26.4373714 48.16988897 -35 43 C-35.04241723 40.66705225 -35.04092937 38.33297433 -35 36 C-34.505 35.505 -34.505 35.505 -34 35 C-32.37146465 35.06420749 -30.74550788 35.2012064 -29.125 35.375 C-27.79855469 35.51035156 -27.79855469 35.51035156 -26.4453125 35.6484375 C-24 36 -24 36 -21 37 C-14.63983025 37.49007385 -14.63983025 37.49007385 -9 35 C-8.67 34.01 -8.34 33.02 -8 32 C-12.65322034 29.78578646 -17.21125835 27.86676743 -22.1875 26.5 C-27.79274319 24.89601128 -31.67885365 22.98171952 -35 18 C-35.69484389 12.85330749 -35.58452659 8.3395401 -33.5 3.5625 C-24.91192015 -5.24028184 -10.63070112 -5.83646336 0 0 Z " fill="#010101" transform="translate(266,233)"/>
<path d="M0 0 C1.9375 0.6875 1.9375 0.6875 2.9375 2.6875 C2.97772391 5.0204866 2.98070247 7.35456666 2.9375 9.6875 C3.78054688 9.65269531 4.62359375 9.61789063 5.4921875 9.58203125 C6.58789062 9.55496094 7.68359375 9.52789062 8.8125 9.5 C10.44832031 9.44779297 10.44832031 9.44779297 12.1171875 9.39453125 C13.04789062 9.49121094 13.97859375 9.58789062 14.9375 9.6875 C16.9375 12.6875 16.9375 12.6875 16.6875 14.75 C15.9375 16.6875 15.9375 16.6875 13.9375 18.6875 C11.3359375 18.8828125 11.3359375 18.8828125 8.3125 18.8125 C6.80816406 18.78542969 6.80816406 18.78542969 5.2734375 18.7578125 C4.50257813 18.73460937 3.73171875 18.71140625 2.9375 18.6875 C3.05548252 22.79943736 3.17971059 26.91113288 3.30981445 31.02270508 C3.35321434 32.42239199 3.39488564 33.82213359 3.43481445 35.22192383 C3.49239445 37.23011495 3.55664 39.23811149 3.62109375 41.24609375 C3.65775146 42.45579834 3.69440918 43.66550293 3.73217773 44.91186523 C3.62688266 47.59455456 3.62688266 47.59455456 4.9375 48.6875 C7.49313371 48.75961665 10.03410453 48.68383716 12.58984375 48.625 C14.9375 48.6875 14.9375 48.6875 16.9375 49.6875 C17.29816329 55.09744933 17.29816329 55.09744933 15.91796875 57.35546875 C12.83806424 59.42696271 9.6479143 59.20042041 6.0625 59.1875 C5.35480469 59.21585937 4.64710938 59.24421875 3.91796875 59.2734375 C0.07761639 59.28774049 -1.85040534 58.84613991 -4.9453125 56.53125 C-8.68188916 51.51237951 -9.31232771 46.91803174 -9.2578125 40.7578125 C-9.24814453 38.82421875 -9.24814453 38.82421875 -9.23828125 36.8515625 C-9.22157463 35.50520558 -9.20464479 34.15885141 -9.1875 32.8125 C-9.17745664 31.44271483 -9.16833317 30.07292258 -9.16015625 28.703125 C-9.13664412 25.36440244 -9.1037793 22.02604239 -9.0625 18.6875 C-11.0425 18.6875 -13.0225 18.6875 -15.0625 18.6875 C-15.7225 17.3675 -16.3825 16.0475 -17.0625 14.6875 C-15.98742371 13.38895279 -14.90206264 12.09891639 -13.8125 10.8125 C-12.90757812 9.73355469 -12.90757812 9.73355469 -11.984375 8.6328125 C-10.09162366 6.71697882 -8.52592273 5.72300955 -6.0625 4.6875 C-6.0625 4.0275 -6.0625 3.3675 -6.0625 2.6875 C-5.4025 2.6875 -4.7425 2.6875 -4.0625 2.6875 C-4.0625 2.0275 -4.0625 1.3675 -4.0625 0.6875 C-2.0625 -0.3125 -2.0625 -0.3125 0 0 Z " fill="#030302" transform="translate(289.0625,221.3125)"/>
<path d="M0 0 C1.4375 1.5625 1.4375 1.5625 1.8125 4.125 C1.4375 6.5625 1.4375 6.5625 -0.5625 8.5625 C-3.65326247 8.96917927 -5.07911706 8.88949434 -7.6875 7.125 C-8.615625 6.3515625 -8.615625 6.3515625 -9.5625 5.5625 C-14.36175166 3.96274945 -19.02928963 3.58684212 -23.82421875 5.43359375 C-27.5424489 7.52982332 -29.35580168 9.21369659 -31.5625 12.9375 C-33.32472798 19.32557643 -33.09351701 23.99334056 -29.87890625 29.76171875 C-27.61299296 32.86138055 -25.22702011 34.44993222 -21.5625 35.5625 C-16.38994665 36.34944948 -12.78374323 36.2998544 -8.25 33.5625 C-7.363125 32.9025 -6.47625 32.2425 -5.5625 31.5625 C-2.8125 31.1875 -2.8125 31.1875 -0.5625 31.5625 C1.4375 33.5625 1.4375 33.5625 2 35.875 C1.34450803 39.00679495 0.79646758 39.39662022 -1.6875 41.25 C-8.3194386 45.45110852 -14.78307251 46.62428673 -22.5625 45.5625 C-27.2841146 43.80819844 -31.38492768 41.34754822 -35.5625 38.5625 C-35.5625 37.9025 -35.5625 37.2425 -35.5625 36.5625 C-36.2225 36.5625 -36.8825 36.5625 -37.5625 36.5625 C-38.2134259 35.31514433 -38.85801669 34.06448168 -39.5 32.8125 C-39.85964844 32.11640625 -40.21929687 31.4203125 -40.58984375 30.703125 C-43.23051055 24.89153703 -43.67027988 18.20152821 -41.80859375 12.0859375 C-38.05956875 3.29410631 -33.29734478 -0.8886801 -24.75 -4.6875 C-15.0993155 -6.95824929 -8.40589667 -4.71550301 0 0 Z " fill="#010100" transform="translate(404.5625,234.4375)"/>
<path d="M0 0 C1.24007812 -0.00515625 2.48015625 -0.0103125 3.7578125 -0.015625 C6.875 0.25 6.875 0.25 8.875 2.25 C8.5 5.375 8.5 5.375 7.875 8.25 C6.98296875 8.38277344 6.0909375 8.51554688 5.171875 8.65234375 C4.00140625 8.82894531 2.8309375 9.00554687 1.625 9.1875 C0.46484375 9.36152344 -0.6953125 9.53554687 -1.890625 9.71484375 C-2.95796875 9.89144531 -4.0253125 10.06804687 -5.125 10.25 C-6.26195312 10.34474609 -6.26195312 10.34474609 -7.421875 10.44140625 C-9.43000944 11.16191062 -9.43000944 11.16191062 -10.20996094 13.86035156 C-11.183103 17.46523533 -11.41096388 20.56352209 -11.46875 24.29296875 C-11.4833728 24.94324539 -11.49799561 25.59352203 -11.51306152 26.26350403 C-11.57486302 29.02077462 -11.61502883 31.77825241 -11.65673828 34.53588867 C-11.69047246 36.5592265 -11.73569793 38.58236249 -11.78125 40.60546875 C-11.79994141 41.80840576 -11.81863281 43.01134277 -11.83789062 44.25073242 C-12.125 47.25 -12.125 47.25 -14.125 50.25 C-16.625 50.625 -16.625 50.625 -19.125 50.25 C-22.40321587 45.33267619 -21.45779367 39.49366751 -21.44067383 33.73632812 C-21.43753069 31.52162696 -21.46091624 29.30828439 -21.48632812 27.09375 C-21.48860311 25.67187667 -21.48930369 24.24999978 -21.48828125 22.828125 C-21.49126221 21.54325195 -21.49424316 20.25837891 -21.49731445 18.93457031 C-21.00558779 14.06824981 -19.72532646 10.08053584 -16.44140625 6.32421875 C-15.86261719 5.86660156 -15.28382813 5.40898437 -14.6875 4.9375 C-14.11128906 4.46699219 -13.53507813 3.99648437 -12.94140625 3.51171875 C-8.51814342 0.43921575 -5.45477088 -0.02277566 0 0 Z " fill="#030202" transform="translate(164.125,229.75)"/>
<path d="M0 0 C7.90937324 4.54505906 11.87883626 10.25024762 14.44067383 18.88598633 C15.42753663 23.53496717 15.13782741 28.36394195 15.16015625 33.09765625 C15.18078125 34.19078125 15.20140625 35.28390625 15.22265625 36.41015625 C15.23039062 37.98796875 15.23039062 37.98796875 15.23828125 39.59765625 C15.2522998 41.03625 15.2522998 41.03625 15.26660156 42.50390625 C14.85450214 45.50263519 13.90318316 46.86651853 11.91015625 49.09765625 C10.92015625 48.76765625 9.93015625 48.43765625 8.91015625 48.09765625 C9.90015625 47.43765625 10.89015625 46.77765625 11.91015625 46.09765625 C12.58901587 41.97281494 12.37277274 37.77156091 12.34765625 33.59765625 C12.36763672 32.45039063 12.38761719 31.303125 12.40820312 30.12109375 C12.40340193 21.69020257 11.39014249 14.33888948 5.91015625 7.66015625 C5.25015625 7.14453125 4.59015625 6.62890625 3.91015625 6.09765625 C3.25015625 5.56140625 2.59015625 5.02515625 1.91015625 4.47265625 C-4.61007674 -0.01000393 -11.43119101 0.19477475 -19.08984375 1.09765625 C-25.15407845 3.54359236 -29.26824837 7.9200109 -33.08984375 13.09765625 C-33.41984375 12.10765625 -33.74984375 11.11765625 -34.08984375 10.09765625 C-26.60888366 -0.89000388 -12.38185326 -5.46632125 0 0 Z " fill="#0D0B0A" transform="translate(345.08984375,230.90234375)"/>
<path d="M0 0 C1.134375 0.020625 2.26875 0.04125 3.4375 0.0625 C3.4375 0.7225 3.4375 1.3825 3.4375 2.0625 C1.4575 2.0625 -0.5225 2.0625 -2.5625 2.0625 C-2.49340425 7.77377914 -2.40533119 13.48434144 -2.30004883 19.19506836 C-2.26689841 21.13574235 -2.238836 23.07651046 -2.21606445 25.01733398 C-2.18233616 27.81534747 -2.13001181 30.6125061 -2.07421875 33.41015625 C-2.06782883 34.2708522 -2.0614389 35.13154816 -2.05485535 36.01832581 C-1.86842057 43.74467414 0.29470632 49.70703178 5.5859375 55.48046875 C10.77457925 59.91380189 16.45590798 61.43206594 23.1875 60.9375 C27.11170331 60.39757415 30.75164319 59.55676628 34.4375 58.0625 C34.4375 58.7225 34.4375 59.3825 34.4375 60.0625 C28.22756876 63.44973522 22.44322243 64.01620522 15.4375 63.0625 C9.36765066 61.01960057 4.59560829 57.97662798 0.4375 53.0625 C-0.119375 52.44375 -0.67625 51.825 -1.25 51.1875 C-4.86323744 45.33749653 -4.84877072 39.10502526 -4.79296875 32.4453125 C-4.79251053 31.54755096 -4.79205231 30.64978943 -4.7915802 29.724823 C-4.78857482 27.84062364 -4.78074033 25.95642638 -4.76831055 24.07226562 C-4.74992506 21.17569284 -4.74780198 18.27943785 -4.74804688 15.3828125 C-4.74313592 13.54947638 -4.73730946 11.71614243 -4.73046875 9.8828125 C-4.72935593 9.01310822 -4.7282431 8.14340393 -4.72709656 7.24734497 C-4.66982348 0.08192673 -4.66982348 0.08192673 0 0 Z " fill="#191917" transform="translate(38.5625,216.9375)"/>
<path d="M0 0 C-2.23731794 1.11865897 -4.41221118 2.15926341 -6.75 3.0625 C-12.78455878 6.66002542 -17.89441722 12.21418618 -20 19 C-20.93788327 26.29585942 -20.00653439 31.85664727 -16 38 C-15.484375 38.886875 -14.96875 39.77375 -14.4375 40.6875 C-9.86986893 45.02089358 -4.31825092 47.82422702 2.0234375 48.16015625 C5.69451843 47.87965811 8.84265218 47.60946573 12.12890625 45.87890625 C14 45 14 45 17 46 C10.34777888 50.09367454 4.77237153 51.13326191 -3 50 C-10.35508411 47.72965398 -15.83051869 43.45111414 -20 37 C-22.8800865 31.02382051 -24.17555223 25.09782897 -22.30859375 18.58984375 C-19.70042875 11.35464125 -16.06688702 5.72297809 -9.5 1.5625 C-5.96158436 -0.01714984 -3.81685327 -0.37237593 0 0 Z " fill="#0F0E0C" transform="translate(110,230)"/>
<path d="M0 0 C1.4375 1.5625 1.4375 1.5625 1.8125 4.125 C1.4375 6.5625 1.4375 6.5625 -0.5625 8.5625 C-3.1875 8.6875 -3.1875 8.6875 -5.5625 8.5625 C-5.5625 7.9025 -5.5625 7.2425 -5.5625 6.5625 C-3.9125 6.5625 -2.2625 6.5625 -0.5625 6.5625 C-1.42318375 2.68942313 -2.53487424 1.58215679 -5.8125 -0.75 C-11.80858721 -3.40400581 -18.1620339 -3.41037085 -24.5625 -2.4375 C-30.82040397 0.22675615 -35.58709825 4.64001768 -38.65234375 10.7265625 C-39.80247188 14.31022353 -39.779974 17.65825647 -39.6875 21.375 C-39.67396484 22.41430664 -39.67396484 22.41430664 -39.66015625 23.47460938 C-39.63676157 25.17072395 -39.60089641 26.86665871 -39.5625 28.5625 C-40.2225 28.5625 -40.8825 28.5625 -41.5625 28.5625 C-43.65864209 21.11523094 -43.1811976 14.43787539 -39.69140625 7.53125 C-35.9250882 0.96299984 -31.46444893 -1.70330047 -24.75 -4.6875 C-15.0993155 -6.95824929 -8.40589667 -4.71550301 0 0 Z " fill="#0D0B0A" transform="translate(404.5625,234.4375)"/>
<path d="M0 0 C4.32316127 3.76508045 7.37407685 7.15484069 8 13 C7.67 13.66 7.34 14.32 7 15 C6.34 14.67 5.68 14.34 5 14 C4.95875 13.13375 4.9175 12.2675 4.875 11.375 C3.4309706 5.80517232 -1.12639924 2.84252108 -5.83984375 -0.1796875 C-11.43258536 -2.30351343 -18.76667035 -1.84900323 -24.484375 -0.34765625 C-30.25184977 2.25664922 -34.57530504 6.62374175 -37.03515625 12.453125 C-37.76855219 14.62261253 -38.42697953 16.78331557 -39 19 C-39.33 19 -39.66 19 -40 19 C-40.53904065 13.60959347 -39.11936806 9.37128835 -36 5 C-35.01 4.67 -34.02 4.34 -33 4 C-33 3.34 -33 2.68 -33 2 C-22.13510658 -4.51893605 -11.47018579 -6.88594766 0 0 Z " fill="#080806" transform="translate(217,233)"/>
<path d="M0 0 C1.9375 0.6875 1.9375 0.6875 2.9375 2.6875 C2.97772391 5.0204866 2.98070247 7.35456666 2.9375 9.6875 C3.78054688 9.65269531 4.62359375 9.61789063 5.4921875 9.58203125 C6.58789062 9.55496094 7.68359375 9.52789062 8.8125 9.5 C10.44832031 9.44779297 10.44832031 9.44779297 12.1171875 9.39453125 C13.04789062 9.49121094 13.97859375 9.58789062 14.9375 9.6875 C16.9375 12.6875 16.9375 12.6875 16.5625 14.875 C16.35625 15.473125 16.15 16.07125 15.9375 16.6875 C14.9475 16.6875 13.9575 16.6875 12.9375 16.6875 C13.123125 16.048125 13.30875 15.40875 13.5 14.75 C13.644375 14.069375 13.78875 13.38875 13.9375 12.6875 C12.12634044 10.87634044 9.32471773 11.30550552 6.875 11.125 C5.77027344 11.04121094 4.66554688 10.95742187 3.52734375 10.87109375 C2.24537109 10.78021484 2.24537109 10.78021484 0.9375 10.6875 C0.9375 7.7175 0.9375 4.7475 0.9375 1.6875 C-3.07853318 3.88727313 -6.13395814 6.46086277 -9.375 9.6875 C-10.25800781 10.55375 -11.14101563 11.42 -12.05078125 12.3125 C-14.38566799 14.55027698 -14.38566799 14.55027698 -14.0625 17.6875 C-15.0525 17.3575 -16.0425 17.0275 -17.0625 16.6875 C-15.64580822 11.49296349 -12.14141809 8.02567117 -8.0625 4.6875 C-7.4025 4.6875 -6.7425 4.6875 -6.0625 4.6875 C-6.0625 4.0275 -6.0625 3.3675 -6.0625 2.6875 C-5.4025 2.6875 -4.7425 2.6875 -4.0625 2.6875 C-4.0625 2.0275 -4.0625 1.3675 -4.0625 0.6875 C-2.0625 -0.3125 -2.0625 -0.3125 0 0 Z " fill="#131210" transform="translate(289.0625,221.3125)"/>
<path d="M0 0 C5.53379447 0.62478325 10.5711517 2.03538329 14.5234375 6.15625 C18.64955891 11.78494742 19.65495312 16.64861225 18.875 23.4375 C17.50925195 27.88593651 15.59870644 31.24906535 11.75 33.9375 C8.875 35.4375 8.875 35.4375 6.875 35.4375 C6.875 34.7775 6.875 34.1175 6.875 33.4375 C7.6175 33.004375 8.36 32.57125 9.125 32.125 C12.27198642 30.1938947 13.8244107 28.50480408 15.875 25.4375 C16.87325822 20.31656498 17.09004913 14.84741471 14.69921875 10.10546875 C11.84998079 6.60834206 9.21178722 4.79593482 4.875 3.4375 C1.97848171 3.19778911 1.97848171 3.19778911 -0.9375 3.3125 C-1.91332031 3.33054688 -2.88914063 3.34859375 -3.89453125 3.3671875 C-4.63058594 3.39039063 -5.36664063 3.41359375 -6.125 3.4375 C-3.94668148 0.97873928 -3.41515755 0.47812206 0 0 Z " fill="#0C0B09" transform="translate(59.125,235.5625)"/>
<path d="M0 0 C1.26328125 0.01804688 2.5265625 0.03609375 3.828125 0.0546875 C4.79234375 0.07789063 5.7565625 0.10109375 6.75 0.125 C7.08 1.775 7.41 3.425 7.75 5.125 C7.09 4.135 6.43 3.145 5.75 2.125 C-0.24384006 1.0888901 -6.58320302 2.10114394 -12.25 4.125 C-13.8248108 6.09534802 -13.8248108 6.09534802 -14.25 8.125 C-14.91 8.125 -15.57 8.125 -16.25 8.125 C-18.74933078 13.79014977 -19.35336989 19.25081677 -19.56640625 25.3984375 C-19.60830078 26.55214844 -19.65019531 27.70585937 -19.69335938 28.89453125 C-19.73267578 30.08433594 -19.77199219 31.27414062 -19.8125 32.5 C-19.85568359 33.71300781 -19.89886719 34.92601562 -19.94335938 36.17578125 C-20.04905513 39.15875032 -20.15115321 42.14179742 -20.25 45.125 C-20.58 45.125 -20.91 45.125 -21.25 45.125 C-21.32465394 40.98074912 -21.37883721 36.83686376 -21.41479492 32.69213867 C-21.42979877 31.28484266 -21.45020863 29.87759276 -21.47631836 28.47045898 C-21.51307665 26.43722093 -21.52980984 24.40460568 -21.54296875 22.37109375 C-21.5586792 21.15091553 -21.57438965 19.9307373 -21.59057617 18.67358398 C-21.12945189 13.86896642 -19.8043338 9.90292706 -16.56640625 6.19921875 C-15.98761719 5.74160156 -15.40882813 5.28398437 -14.8125 4.8125 C-14.23628906 4.34199219 -13.66007813 3.87148437 -13.06640625 3.38671875 C-8.56891666 0.26265609 -5.54928119 -0.10276447 0 0 Z " fill="#11100F" transform="translate(164.25,229.875)"/>
<path d="M0 0 C1.36125 0.37125 1.36125 0.37125 2.75 0.75 C3.375 4.125 3.375 4.125 3.75 7.75 C1.75 9.75 1.75 9.75 -1.875 9.875 C-2.98875 9.83375 -4.1025 9.7925 -5.25 9.75 C-5.91 7.77 -6.57 5.79 -7.25 3.75 C-4.05 -0.31153846 -4.05 -0.31153846 0 0 Z " fill="#030303" transform="translate(464.25,272.25)"/>
<path d="M0 0 C2.375 -0.125 2.375 -0.125 5 0 C7 2 7 2 7.5625 4.3125 C6.90700803 7.44429495 6.35896758 7.83412022 3.875 9.6875 C-2.76237675 13.8920534 -9.21556568 15.05195058 -17 14 C-22.01900157 12.19759612 -26.375778 9.96108879 -30 6 C-26.95806665 6.63096871 -25.39511256 7.36965344 -22.625 9.0625 C-16.73470512 12.06280001 -10.43160065 11.87398058 -4 11 C-0.85456461 9.8245271 1.72248741 8.494106 4 6 C4.73210964 3.90942884 4.73210964 3.90942884 5 2 C2.525 1.505 2.525 1.505 0 1 C0 0.67 0 0.34 0 0 Z " fill="#10100D" transform="translate(399,266)"/>
<path d="M0 0 C1.73046875 1.52734375 1.73046875 1.52734375 3 3 C2.2265625 2.94199219 1.453125 2.88398438 0.65625 2.82421875 C-5.61684739 2.55248805 -10.28243919 2.6416651 -15.44140625 6.44921875 C-18.94356023 9.93381807 -19.83102863 13.67236784 -20.4375 18.4375 C-19.89724703 22.83670276 -18.46173152 26.31638714 -16 30 C-15.34 30.33 -14.68 30.66 -14 31 C-14 31.66 -14 32.32 -14 33 C-17.21646418 31.85126279 -19.42126836 30.09254526 -21.2265625 27.16796875 C-23.25598438 21.47943771 -23.47464744 14.20224536 -20.9296875 8.67578125 C-15.61519984 1.98185007 -8.38579119 -0.99492438 0 0 Z " fill="#100E0C" transform="translate(392,236)"/>
<path d="M0 0 C4.875 0.875 4.875 0.875 6 2 C6.40625 4.23046875 6.40625 4.23046875 6 7 C4.19905525 9.00267395 2.54883673 10.61352605 0.5 12.3125 C-0.02464844 12.76689453 -0.54929687 13.22128906 -1.08984375 13.68945312 C-2.38234153 14.8057012 -3.68978142 15.90460622 -5 17 C-4.12429445 21.40785758 -1.68803513 24.30710183 1.0625 27.75 C1.53494141 28.35199219 2.00738281 28.95398438 2.49414062 29.57421875 C3.65690401 31.05409943 4.8276766 32.52768096 6 34 C5.67 34.66 5.34 35.32 5 36 C-9 20.38297872 -9 20.38297872 -9 17 C-7.23947136 15.41929472 -5.41580202 13.90833714 -3.5625 12.4375 C-2.55316406 11.63183594 -1.54382813 10.82617188 -0.50390625 9.99609375 C0.73552734 9.00802734 0.73552734 9.00802734 2 8 C3.26472065 6.94570314 3.26472065 6.94570314 3.25 4.5625 C3.1675 3.716875 3.085 2.87125 3 2 C2.01 1.34 1.02 0.68 0 0 Z " fill="#131210" transform="translate(443,237)"/>
<path d="M0 0 C0.26554687 0.5671875 0.53109375 1.134375 0.8046875 1.71875 C4.09328456 7.99502674 8.24647733 13.57218921 14.91015625 16.34765625 C22.92844342 18.85056084 29.11053745 17.61015864 37 15 C37 15.66 37 16.32 37 17 C30.79006876 20.38723522 25.00572243 20.95370522 18 20 C11.93015066 17.95710057 7.15810829 14.91412798 3 10 C2.4225 9.34 1.845 8.68 1.25 8 C-0.2141599 5.65734416 -0.70421374 3.73602287 -1 1 C-0.67 0.67 -0.34 0.34 0 0 Z " fill="#0F0E0C" transform="translate(36,260)"/>
<path d="M0 0 C0.495 1.485 0.495 1.485 1 3 C-2.24845645 9.20293493 -8.51676174 12.95409732 -15 15 C-21.93317415 15.92736724 -27.90606858 15.52093815 -34 12 C-34.33 11.34 -34.66 10.68 -35 10 C-34.17757812 10.23976563 -33.35515625 10.47953125 -32.5078125 10.7265625 C-23.55442451 13.1044831 -17.07835645 13.63683893 -8.75 9.3125 C-5.41362248 6.50690982 -2.70092663 3.40968042 0 0 Z " fill="#0F0F0C" transform="translate(223,265)"/>
<path d="M0 0 C1.2065625 0.0309375 1.2065625 0.0309375 2.4375 0.0625 C1.1175 1.0525 -0.2025 2.0425 -1.5625 3.0625 C-1.44943303 5.02144361 -1.44943303 5.02144361 -0.5625 7.0625 C6.05789409 10.65642822 15.48801502 11.34786372 22.75390625 9.4609375 C25.92612281 8.30421765 28.62636948 6.93658702 31.4375 5.0625 C29.95751973 8.96426618 28.19849742 10.31684801 24.4375 12.0625 C21.34680237 12.52143408 18.30781548 12.53643455 15.1875 12.5 C14.34082764 12.49677734 13.49415527 12.49355469 12.62182617 12.49023438 C6.3727909 12.35044302 1.85487003 11.33336493 -3.5625 8.0625 C-3.60491723 5.72955225 -3.60342937 3.39547433 -3.5625 1.0625 C-2.5625 0.0625 -2.5625 0.0625 0 0 Z " fill="#100F0D" transform="translate(234.5625,267.9375)"/>
<path d="M0 0 C0.66 0.66 1.32 1.32 2 2 C0.49759766 1.94779297 0.49759766 1.94779297 -1.03515625 1.89453125 C-12.58662366 1.46254638 -12.58662366 1.46254638 -22.3125 7.125 C-24.54624312 10.93063643 -25.28462939 14.67953801 -26 19 C-26.33 19 -26.66 19 -27 19 C-27.36721393 14.40982584 -27.42605145 10.94086362 -25.5 6.6875 C-18.4422966 -0.89953116 -9.89568211 -1.04037734 0 0 Z " fill="#0E0E0C" transform="translate(258,230)"/>
<path d="M0 0 C-1.95807282 0.9964415 -3.90877853 1.96103698 -5.9296875 2.82421875 C-12.08598099 5.55622851 -16.37574711 9.15082712 -19.03515625 15.453125 C-19.76855219 17.62261253 -20.42697953 19.78331557 -21 22 C-21.33 22 -21.66 22 -22 22 C-22.53904065 16.60959347 -21.11936806 12.37128835 -18 8 C-17.01 7.67 -16.02 7.34 -15 7 C-15 6.34 -15 5.68 -15 5 C-6.06081081 -0.13175676 -6.06081081 -0.13175676 0 0 Z " fill="#100F0E" transform="translate(199,230)"/>
<path d="M0 0 C0 0.99 0 1.98 0 3 C-0.64710938 3.42152344 -1.29421875 3.84304688 -1.9609375 4.27734375 C-4.31935539 5.89670689 -4.31935539 5.89670689 -4.5390625 9.06640625 C-4.56742187 10.22011719 -4.59578125 11.37382812 -4.625 12.5625 C-4.80597015 18.80597015 -4.80597015 18.80597015 -7 21 C-9.625 21.125 -9.625 21.125 -12 21 C-9 19 -9 19 -7 19 C-7.08121094 18.13117188 -7.16242188 17.26234375 -7.24609375 16.3671875 C-7.75586076 7.06654037 -7.75586076 7.06654037 -5.44140625 3.80078125 C-3.69054267 2.34583827 -1.98570231 1.1093592 0 0 Z " fill="#131311" transform="translate(428,260)"/>
<path d="M0 0 C-3.99064621 1.68973308 -7.9921343 3.35153196 -12 5 C-13.18335938 5.48855469 -14.36671875 5.97710937 -15.5859375 6.48046875 C-16.73320312 6.94066406 -17.88046875 7.40085937 -19.0625 7.875 C-20.12597656 8.30554688 -21.18945312 8.73609375 -22.28515625 9.1796875 C-25 10 -25 10 -28 9 C-22.20920723 5.79803223 -16.31601116 3.25393543 -10.0625 1.125 C-9.4120874 0.8978833 -8.7616748 0.6707666 -8.09155273 0.43676758 C-3.36593201 -1.12197734 -3.36593201 -1.12197734 0 0 Z " fill="#0B0A07" transform="translate(214,252)"/>
<path d="M0 0 C3.97007156 0.27698174 5.72389212 0.76684223 8.8125 3.375 C12.33265688 7.59918825 12.46044435 11.67811997 12 17 C11 19.5 11 19.5 10 21 C9.34 20.34 8.68 19.68 8 19 C8.33 18.67 8.66 18.34 9 18 C9.65607999 12.93881148 9.92085604 9.20222872 6.75 5.0625 C5.8425 4.381875 4.935 3.70125 4 3 C3.236875 2.401875 2.47375 1.80375 1.6875 1.1875 C1.130625 0.795625 0.57375 0.40375 0 0 Z " fill="#090806" transform="translate(257,253)"/>
<path d="M0 0 C2.3125 -0.3125 2.3125 -0.3125 5 0 C6.9375 2.25 6.9375 2.25 8 5 C7.06640625 7.171875 7.06640625 7.171875 6 9 C4.56260487 9.02712066 3.12506137 9.04645067 1.6875 9.0625 C0.48673828 9.07990234 0.48673828 9.07990234 -0.73828125 9.09765625 C-3 9 -3 9 -6 8 C-6 7.34 -6 6.68 -6 6 C-2.7 6.33 0.6 6.66 4 7 C4.33 5.35 4.66 3.7 5 2 C3.35 1.67 1.7 1.34 0 1 C0 0.67 0 0.34 0 0 Z " fill="#0D0C09" transform="translate(260,232)"/>
<path d="M0 0 C0.33 0.99 0.66 1.98 1 3 C0.3503125 3.61488281 -0.299375 4.22976562 -0.96875 4.86328125 C-1.8040625 5.67152344 -2.639375 6.47976562 -3.5 7.3125 C-4.3353125 8.11300781 -5.170625 8.91351563 -6.03125 9.73828125 C-8.32828283 11.87737482 -8.32828283 11.87737482 -8 15 C-8.99 14.67 -9.98 14.34 -11 14 C-9.58330822 8.80546349 -6.07891809 5.33817117 -2 2 C-1.34 2 -0.68 2 0 2 C0 1.34 0 0.68 0 0 Z " fill="#0B0907" transform="translate(283,224)"/>
<path d="M0 0 C0.33 0 0.66 0 1 0 C1.09796875 0.79664063 1.1959375 1.59328125 1.296875 2.4140625 C2.17364593 8.62704273 2.94805192 13.13766231 7 18 C6.67 18.66 6.34 19.32 6 20 C2.13419452 15.82899935 0.01024887 12.75841853 -1 7 C-0.625 3.0625 -0.625 3.0625 0 0 Z " fill="#0C0A09" transform="translate(316,249)"/>
<path d="M0 0 C4.29245529 1.53301975 6.01922537 3.9677088 8 8 C8.32510555 11.6929959 8.23678364 15.30354429 8 19 C7.67 19 7.34 19 7 19 C6.96132812 18.12988281 6.96132812 18.12988281 6.921875 17.2421875 C6.51016897 11.5718727 5.41321793 8.51425597 2 4 C2 3.34 2 2.68 2 2 C1.34 2 0.68 2 0 2 C0 1.34 0 0.68 0 0 Z " fill="#0C0C0A" transform="translate(123,240)"/>
<path d="M0 0 C3.96064107 1.74268207 7.74436549 4.14674729 11 7 C11 7.66 11 8.32 11 9 C6.56029258 7.60466338 4.09484321 5.43871468 1 2 C0.67 1.34 0.34 0.68 0 0 Z " fill="#090A08" transform="translate(313,269)"/>
<path d="M0 0 C0.66 0 1.32 0 2 0 C2.66 2.97 3.32 5.94 4 9 C3.01 8.67 2.02 8.34 1 8 C0.3125 5.9375 0.3125 5.9375 0 4 C-0.99 4.33 -1.98 4.66 -3 5 C-1.125 1.125 -1.125 1.125 0 0 Z " fill="#090907" transform="translate(350,271)"/>
<path d="M0 0 C2.375 -0.125 2.375 -0.125 5 0 C7 2 7 2 7.125 4.625 C7.08375 5.40875 7.0425 6.1925 7 7 C6.01 7 5.02 7 4 7 C4.33 5.35 4.66 3.7 5 2 C3.35 1.67 1.7 1.34 0 1 C0 0.67 0 0.34 0 0 Z " fill="#0E0F0B" transform="translate(399,266)"/>
<path d="M0 0 C1.1446875 0.12375 1.1446875 0.12375 2.3125 0.25 C-1.02083333 2.91666667 -4.35416667 5.58333333 -7.6875 8.25 C-4.03125 0.375 -4.03125 0.375 0 0 Z " fill="#0A0A09" transform="translate(219.6875,260.75)"/>
<path d="M0 0 C2.88437779 1.29299694 4.87219421 2.65941363 7 5 C6.67 5.66 6.34 6.32 6 7 C3.95880212 5.38405168 1.95927063 3.7143618 0 2 C0 1.34 0 0.68 0 0 Z " fill="#080706" transform="translate(181,269)"/>
<path d="M0 0 C0.99 0.33 1.98 0.66 3 1 C3.33 2.65 3.66 4.3 4 6 C2.02 6.99 2.02 6.99 0 8 C0.185625 7.236875 0.37125 6.47375 0.5625 5.6875 C1.22819173 2.91032625 1.22819173 2.91032625 0 0 Z " fill="#0C0C08" transform="translate(302,231)"/>
</svg>
