<?xml version="1.0" encoding="UTF-8"?>
<svg version="1.1" xmlns="http://www.w3.org/2000/svg" width="445" height="75">
<path d="M0 0 C146.85 0 293.7 0 445 0 C445 24.75 445 49.5 445 75 C298.15 75 151.3 75 0 75 C0 50.25 0 25.5 0 0 Z " fill="#FCFCFC" transform="translate(0,0)"/>
<path d="M0 0 C2.64 0 5.28 0 8 0 C8 5.94 8 11.88 8 18 C8.66 18 9.32 18 10 18 C10.33 17.01 10.66 16.02 11 15 C18.37121391 11.38140408 27.27452984 10.63872577 35.125 13 C42.07582227 15.97489553 47.22945495 22.09867241 50 29 C50.3112265 31.73094243 50.47834568 34.15570715 50.4375 36.875 C50.42920166 37.58390381 50.42090332 38.29280762 50.41235352 39.02319336 C50.23199579 44.60016223 49.46032263 48.6155556 46 53 C45.51402344 53.62261719 45.02804688 54.24523438 44.52734375 54.88671875 C39.6782506 60.35484507 33.86780827 63.20642453 26.67578125 64.37890625 C17.38656737 64.88146407 10.75263366 60.19758714 3.9453125 54.390625 C-1.09981815 48.19058493 -1.43352079 41.49740508 -1.328125 33.84765625 C-1.32625183 32.90691757 -1.32437866 31.96617889 -1.32244873 30.99693298 C-1.31576606 29.02453016 -1.30192779 27.05213973 -1.28125 25.07983398 C-1.24984195 22.04723933 -1.24024909 19.01516375 -1.234375 15.98242188 C-1.22521424 14.0624936 -1.21484145 12.14257063 -1.203125 10.22265625 C-1.19887512 9.31234146 -1.19462524 8.40202667 -1.19024658 7.46412659 C-1.11721838 1.11721838 -1.11721838 1.11721838 0 0 Z " fill="#040404" transform="translate(8,5)"/>
<path d="M0 0 C4.99078593 4.20414717 8.13901223 9.75214982 10.23046875 15.87890625 C10.48925781 18.96923828 10.48925781 18.96923828 10.49609375 22.38671875 C10.49996094 24.23716797 10.49996094 24.23716797 10.50390625 26.125 C10.49617188 27.40503906 10.4884375 28.68507812 10.48046875 30.00390625 C10.49207031 31.93556641 10.49207031 31.93556641 10.50390625 33.90625 C10.50132812 35.13730469 10.49875 36.36835937 10.49609375 37.63671875 C10.49383789 38.76223145 10.49158203 39.88774414 10.48925781 41.04736328 C10.23046875 43.87890625 10.23046875 43.87890625 8.23046875 46.87890625 C4.85546875 46.56640625 4.85546875 46.56640625 1.23046875 45.87890625 C0.57046875 44.88890625 -0.08953125 43.89890625 -0.76953125 42.87890625 C-1.3521875 43.16765625 -1.93484375 43.45640625 -2.53515625 43.75390625 C-10.15909258 47.20625478 -17.49522662 48.64666769 -25.61328125 45.92578125 C-30.35569201 43.72195507 -34.03013399 41.48607437 -36.76953125 36.87890625 C-36.76953125 36.21890625 -36.76953125 35.55890625 -36.76953125 34.87890625 C-37.75953125 34.54890625 -38.74953125 34.21890625 -39.76953125 33.87890625 C-42.78690004 27.05438759 -43.03857521 18.62832226 -41.1171875 11.4375 C-38.30836164 5.27737117 -33.35031466 -0.19740711 -27.14453125 -2.99609375 C-17.40419173 -6.24287359 -8.69380367 -5.73597539 0 0 Z " fill="#090909" transform="translate(322.76953125,21.12109375)"/>
<path d="M0 0 C6.20725849 3.91142316 10.77201675 8.00072413 12.99609375 15.2578125 C13.45023581 19.68641063 13.48990066 24.06467463 13.40771484 28.51391602 C13.37086176 30.58333941 13.36669861 32.65098345 13.3671875 34.72070312 C13.27745302 44.8357736 13.27745302 44.8357736 10.99609375 48.2578125 C8.62109375 48.6953125 8.62109375 48.6953125 5.99609375 48.2578125 C3.68359375 46.2578125 3.68359375 46.2578125 1.99609375 44.2578125 C0.98546875 44.9178125 -0.02515625 45.5778125 -1.06640625 46.2578125 C-7.40378371 49.38710368 -14.12390691 49.20226859 -21.00390625 48.2578125 C-29.37831341 45.25048935 -34.48834029 39.28894443 -38.37890625 31.5078125 C-39.91628187 23.51345928 -40.1330372 16.37436461 -35.625 9.36328125 C-26.68004377 -2.25438479 -13.93418007 -7.31224862 0 0 Z " fill="#060605" transform="translate(99.00390625,19.7421875)"/>
<path d="M0 0 C3.97331287 3.38015983 7.19671717 6.95921564 8.5625 12.0625 C7.79261149 15.0867327 7.26542416 15.41423767 4.74609375 17.10546875 C-1.03983202 20.36308011 -7.25959811 22.61826367 -13.46484375 24.9375 C-14.65207031 25.39189453 -15.83929688 25.84628906 -17.0625 26.31445312 C-25.79437852 29.625 -25.79437852 29.625 -28.08984375 29.625 C-26.17403842 33.26503013 -24.94339499 35.13766444 -21.08984375 36.625 C-15.79530385 37.31281032 -11.3995368 37.27984652 -6.58984375 34.875 C-4.0657926 32.78992216 -4.0657926 32.78992216 -2.58984375 30.375 C-1.08984375 28.625 -1.08984375 28.625 1.97265625 28.3125 C4.91015625 28.625 4.91015625 28.625 6.91015625 29.625 C7.33592728 33.88271031 7.25617592 36.06690376 4.97265625 39.75 C-0.08613785 45.14122914 -6.88593769 48.19602999 -14.15234375 48.9375 C-21.27218563 48.37243318 -28.19930773 45.67607261 -34.08984375 41.625 C-34.08984375 40.965 -34.08984375 40.305 -34.08984375 39.625 C-34.74984375 39.625 -35.40984375 39.625 -36.08984375 39.625 C-36.74076965 38.37764433 -37.38536044 37.12698168 -38.02734375 35.875 C-38.38699219 35.17890625 -38.74664062 34.4828125 -39.1171875 33.765625 C-42.57552064 26.15451431 -41.71222615 17.36102807 -39.08984375 9.625 C-37.08984375 6.625 -37.08984375 6.625 -35.08984375 4.625 C-34.42984375 4.625 -33.76984375 4.625 -33.08984375 4.625 C-33.08984375 3.635 -33.08984375 2.645 -33.08984375 1.625 C-31.84248808 0.9740741 -30.59182543 0.32948331 -29.33984375 -0.3125 C-28.64375 -0.67214844 -27.94765625 -1.03179688 -27.23046875 -1.40234375 C-18.85358421 -5.20862888 -7.72612904 -5.08335967 0 0 Z " fill="#070706" transform="translate(190.08984375,20.375)"/>
<path d="M0 0 C2 3 2 3 1.6875 5.625 C1 8 1 8 0 9 C-1.63256758 9.15714654 -3.27135338 9.25085414 -4.91015625 9.31640625 C-6.39418945 9.37924805 -6.39418945 9.37924805 -7.90820312 9.44335938 C-9.46958008 9.50233398 -9.46958008 9.50233398 -11.0625 9.5625 C-12.62967773 9.62727539 -12.62967773 9.62727539 -14.22851562 9.69335938 C-16.81886884 9.79981225 -19.40932186 9.9018276 -22 10 C-22 11.65 -22 13.3 -22 15 C-20.77023438 15.37511719 -19.54046875 15.75023438 -18.2734375 16.13671875 C-16.64039258 16.65291111 -15.00759281 17.16987949 -13.375 17.6875 C-12.56675781 17.93177734 -11.75851563 18.17605469 -10.92578125 18.42773438 C-5.59900324 20.13836634 -1.97260889 22.02112517 2 26 C3.55914931 30.67744792 3.8417646 35.13269988 3 40 C0.34335485 44.12363876 -3.40170438 47.2614218 -8 49 C-16.47445436 49.76768587 -25.14628821 49.60444036 -33 46 C-35 44 -35 44 -35.1953125 42.0546875 C-35.09765625 39.02734375 -35.09765625 39.02734375 -35 36 C-28.60341422 35.87457675 -28.60341422 35.87457675 -25.61328125 36.49609375 C-22.80946704 37.03673954 -20.22825216 37.1328602 -17.375 37.125 C-15.96347656 37.12886719 -15.96347656 37.12886719 -14.5234375 37.1328125 C-11.87322493 37.10547998 -11.87322493 37.10547998 -9 36 C-9.33 35.01 -9.66 34.02 -10 33 C-13.09432079 31.48575791 -16.21300364 30.29087385 -19.44140625 29.09765625 C-32.41764844 24.16470311 -32.41764844 24.16470311 -35 19 C-36.19089047 7.63550236 -36.19089047 7.63550236 -32.875 3.4375 C-23.25309834 -4.72019924 -11.365257 -4.72095291 0 0 Z " fill="#040404" transform="translate(239,20)"/>
<path d="M0 0 C0.721875 0.00257813 1.44375 0.00515625 2.1875 0.0078125 C2.909375 0.00523437 3.63125 0.00265625 4.375 0 C6.1875 0.1328125 6.1875 0.1328125 7.1875 1.1328125 C7.34638092 3.42270031 7.43888073 5.71724691 7.50390625 8.01171875 C7.52468735 8.6983812 7.54546844 9.38504364 7.56687927 10.09251404 C7.63244143 12.29334185 7.69129015 14.49429225 7.75 16.6953125 C7.79317892 18.18425764 7.836793 19.67319023 7.88085938 21.16210938 C7.9881293 24.81887803 8.08937772 28.47578568 8.1875 32.1328125 C8.58582031 31.6996875 8.98414063 31.2665625 9.39453125 30.8203125 C9.92433594 30.2634375 10.45414062 29.7065625 11 29.1328125 C11.52207031 28.5759375 12.04414063 28.0190625 12.58203125 27.4453125 C14.1875 26.1328125 14.1875 26.1328125 17.1875 26.1328125 C17.39375 25.5759375 17.6 25.0190625 17.8125 24.4453125 C19.69881983 21.27286552 21.98883698 18.94201104 25.1875 17.1328125 C29 16.7578125 29 16.7578125 32.1875 17.1328125 C33.1875 18.1328125 33.1875 18.1328125 33.8125 21.1953125 C33.06987445 25.87385345 32.19896334 26.29026491 28.625 29.1328125 C27.77808594 29.7309375 26.93117188 30.3290625 26.05859375 30.9453125 C23.83855915 33.07690704 23.83855915 33.07690704 24.09375 36.4765625 C25.5616636 41.38358795 28.3550287 44.50775601 31.68164062 48.23828125 C34.23746636 51.284619 35.17138481 52.96589306 35.55859375 56.9765625 C35.1875 60.1328125 35.1875 60.1328125 34.1875 61.1328125 C30.83113131 61.43115638 28.79250011 61.46715467 25.8125 59.8203125 C24.1875 58.1328125 24.1875 58.1328125 24.1875 55.1328125 C23.59453125 54.88402344 23.0015625 54.63523438 22.390625 54.37890625 C19.86971118 52.95307024 18.64932089 51.51664537 16.9375 49.1953125 C16.41671875 48.50566406 15.8959375 47.81601562 15.359375 47.10546875 C14.1875 45.1328125 14.1875 45.1328125 14.1875 42.1328125 C11.52348317 43.40479691 11.52348317 43.40479691 9.1875 46.1328125 C8.659157 48.94069988 8.5002821 51.62200352 8.42578125 54.4765625 C8.18257027 57.18776686 7.56173572 58.8113944 6.1875 61.1328125 C2.8125 61.3203125 2.8125 61.3203125 -0.8125 61.1328125 C-3.07852647 57.7337728 -3.06108253 56.56100049 -3.05541992 52.57568359 C-3.05849655 51.43795502 -3.06157318 50.30022644 -3.06474304 49.12802124 C-3.05396477 47.28574448 -3.05396477 47.28574448 -3.04296875 45.40625 C-3.04251053 44.14769196 -3.04205231 42.88913391 -3.0415802 41.59243774 C-3.03855722 38.93095415 -3.03173983 36.26981643 -3.01831055 33.60839844 C-3.00128633 30.19060847 -2.99749728 26.77296619 -2.99825573 23.35513878 C-2.99791917 20.10132782 -2.98908689 16.84754806 -2.98046875 13.59375 C-2.97935593 12.36151703 -2.9782431 11.12928406 -2.97709656 9.85971069 C-2.97071671 8.72828644 -2.96433685 7.59686218 -2.95776367 6.43115234 C-2.95395187 5.42982269 -2.95014008 4.42849304 -2.94621277 3.39682007 C-2.78396961 0.64973964 -2.74686622 0.20127899 0 0 Z " fill="#050504" transform="translate(388.8125,7.8671875)"/>
<path d="M0 0 C2.0234375 1.0703125 2.0234375 1.0703125 5.0234375 3.0703125 C5.2734375 6.6328125 5.2734375 6.6328125 5.0234375 10.0703125 C4.0234375 11.0703125 4.0234375 11.0703125 0.8359375 11.3203125 C-2.9765625 11.0703125 -2.9765625 11.0703125 -5.8515625 9.5703125 C-10.00965986 7.57442577 -13.43927926 7.46859393 -17.9765625 8.0703125 C-22.17796915 9.62638904 -24.67904372 11.20080718 -26.9765625 15.0703125 C-28.85861773 20.71647818 -28.28810448 25.86414681 -26 31.26953125 C-24.15759479 34.51132056 -22.38785285 35.60833092 -18.9765625 37.0703125 C-12.68784912 37.87371641 -8.30338626 37.62152834 -2.9765625 34.0703125 C0.7109375 33.6953125 0.7109375 33.6953125 4.0234375 34.0703125 C6.0234375 37.0703125 6.0234375 37.0703125 5.8984375 39.0078125 C4.21224093 42.98241869 1.63892368 44.73794996 -2.1015625 46.7578125 C-9.1027153 49.46552331 -15.83825913 49.80865651 -22.859375 47.09765625 C-26.27935863 45.4381439 -29.04670861 43.50146785 -31.9765625 41.0703125 C-31.9765625 40.4103125 -31.9765625 39.7503125 -31.9765625 39.0703125 C-32.9665625 38.7403125 -33.9565625 38.4103125 -34.9765625 38.0703125 C-39.9505446 31.36624967 -39.87972691 23.02944883 -38.9765625 15.0703125 C-36.93735202 7.14288178 -30.64446888 2.7146171 -24.2890625 -1.8671875 C-15.98595182 -4.53044942 -7.85234426 -3.52181553 0 0 Z " fill="#060605" transform="translate(373.9765625,19.9296875)"/>
<path d="M0 0 C4.875 0.875 4.875 0.875 6 2 C6.14115161 4.67058851 6.04247107 7.32432238 6 10 C10.29 10 14.58 10 19 10 C20 16 20 16 18.91796875 17.86328125 C16.28171608 19.42570391 14.35439767 19.29486109 11.3125 19.1875 C9.82169922 19.14689453 9.82169922 19.14689453 8.30078125 19.10546875 C7.54152344 19.07066406 6.78226562 19.03585938 6 19 C6.0721875 20.24394531 6.144375 21.48789062 6.21875 22.76953125 C6.71180005 31.51875277 7.17731648 40.23268508 7 49 C7.77085937 48.98839844 8.54171875 48.97679687 9.3359375 48.96484375 C10.33882813 48.95582031 11.34171875 48.94679687 12.375 48.9375 C13.37273437 48.92589844 14.37046875 48.91429687 15.3984375 48.90234375 C18 49 18 49 20 50 C20.1875 53.375 20.1875 53.375 20 57 C16.31296857 59.45802095 13.39825909 59.40285195 9.125 59.4375 C8.41730469 59.47037109 7.70960938 59.50324219 6.98046875 59.53710938 C3.08822694 59.57697405 1.22893641 59.17589017 -1.8828125 56.78515625 C-5.61572573 51.87451578 -6.2474672 48.07739604 -6.1953125 41.94921875 C-6.19106766 40.96100883 -6.19106766 40.96100883 -6.18673706 39.95283508 C-6.17560924 37.86419938 -6.15051948 35.77600444 -6.125 33.6875 C-6.11496059 32.26498018 -6.10583642 30.8424536 -6.09765625 29.41992188 C-6.07569447 25.94647319 -6.04121646 22.47327967 -6 19 C-6.94875 19.04125 -7.8975 19.0825 -8.875 19.125 C-12 19 -12 19 -14 17 C-13.68520452 13.43231788 -11.93485958 11.3814856 -9.625 8.75 C-9.01914063 8.04359375 -8.41328125 7.3371875 -7.7890625 6.609375 C-6 5 -6 5 -3 5 C-3 4.34 -3 3.68 -3 3 C-2.34 3 -1.68 3 -1 3 C-0.67 2.01 -0.34 1.02 0 0 Z " fill="#040403" transform="translate(259,9)"/>
<path d="M0 0 C1.546875 -0.00773437 1.546875 -0.00773437 3.125 -0.015625 C5.94597278 0.24500835 7.60145718 0.79703656 10 2.25 C10 2.91 10 3.57 10 4.25 C10.66 4.25 11.32 4.25 12 4.25 C18.06247348 15.47291803 18.06247348 15.47291803 16.85546875 22.10546875 C15.03752094 26.66278997 11.41917227 31.04041386 7 33.25 C1.63196777 33.91910317 -3.73854949 34.53389808 -8.56640625 31.79296875 C-12.3680006 28.46744883 -15.72951255 25.3202693 -16.40625 20.140625 C-16.69053628 9.10084122 -16.69053628 9.10084122 -13.25 5 C-9.17523394 1.00755244 -5.67273097 -0.02836365 0 0 Z " fill="#FBFBFB" transform="translate(86,25.75)"/>
<path d="M0 0 C4.84954953 2.62456894 7.13063438 5.86303769 9.01953125 10.99609375 C10.12533168 14.85609277 10.46397353 17.44234174 8.73046875 21.16015625 C6.08864127 25.74274373 3.25188986 29.46343448 -1.3515625 32.19140625 C-7.07353073 32.99197618 -12.11271082 32.7395552 -17.3515625 30.19140625 C-22.85702865 24.37134204 -23.86862487 18.87988997 -23.734375 11.07421875 C-23.14128905 6.60791843 -21.73546637 5.12412293 -18.3515625 2.19140625 C-17.6503125 1.57265625 -16.9490625 0.95390625 -16.2265625 0.31640625 C-10.94678653 -1.74959304 -5.38044658 -1.85008711 0 0 Z " fill="#FBFBFB" transform="translate(314.3515625,26.80859375)"/>
<path d="M0 0 C4.34067096 1.26696614 6.65031028 3.55167985 9.4375 7.125 C11.63424855 11.62448057 12.15784806 16.12485028 11 21 C9.0329461 24.09706358 6.68106486 26.51413044 4 29 C3.54882812 29.55945313 3.09765625 30.11890625 2.6328125 30.6953125 C-0.46383457 33.16966686 -4.2606458 32.45214511 -8.05078125 32.3515625 C-13.3112803 31.72448314 -15.88031957 29.24072696 -19.3125 25.4375 C-22.63368155 20.64023776 -22.63446044 15.64846029 -22 10 C-17.04546924 0.09093847 -10.33214298 -1.23578036 0 0 Z " fill="#FBFBFB" transform="translate(38,27)"/>
<path d="M0 0 C1.97226563 0.03673828 1.97226563 0.03673828 3.984375 0.07421875 C7.25 0.3125 7.25 0.3125 9.25 1.3125 C8.92 3.6225 8.59 5.9325 8.25 8.3125 C6.55230469 8.56773438 6.55230469 8.56773438 4.8203125 8.828125 C3.33838821 9.07198596 1.85662526 9.3168288 0.375 9.5625 C-0.37136719 9.67207031 -1.11773437 9.78164063 -1.88671875 9.89453125 C-5.94586384 10.42997438 -5.94586384 10.42997438 -8.94580078 12.92260742 C-10.0390984 16.17163305 -10.15300883 19.17389833 -10.3125 22.59765625 C-10.34931885 23.29515488 -10.3861377 23.9926535 -10.42407227 24.71128845 C-10.58083301 27.68493736 -10.71690183 30.65944531 -10.85449219 33.6340332 C-10.95811381 35.80984954 -11.07251789 37.98491548 -11.1875 40.16015625 C-11.24808594 41.45961182 -11.30867188 42.75906738 -11.37109375 44.09790039 C-11.75 47.3125 -11.75 47.3125 -13.75 50.3125 C-16.375 50.5 -16.375 50.5 -18.75 50.3125 C-22.70073256 44.42820786 -22.19458529 38.39280956 -22.125 31.5 C-22.13660156 30.36240234 -22.14820312 29.22480469 -22.16015625 28.05273438 C-22.13249098 20.06208115 -21.65468668 12.84522704 -16.4375 6.5 C-10.78525619 1.89933643 -7.47532708 -0.21421392 0 0 Z " fill="#050404" transform="translate(136.75,17.6875)"/>
<path d="M0 0 C1.134375 0.020625 2.26875 0.04125 3.4375 0.0625 C3.4375 0.7225 3.4375 1.3825 3.4375 2.0625 C1.4575 2.0625 -0.5225 2.0625 -2.5625 2.0625 C-2.49305081 7.00682172 -2.40481661 11.95034328 -2.30004883 16.89404297 C-2.26703704 18.57168613 -2.23893324 20.24943402 -2.21606445 21.92724609 C-2.21149665 39.11351611 -2.21149665 39.11351611 5.4375 54.0625 C10.89805497 58.7248764 16.30963702 60.29142407 23.4375 60.0625 C27.15307461 59.58215956 30.78722071 58.90220303 34.4375 58.0625 C34.7675 58.7225 35.0975 59.3825 35.4375 60.0625 C28.21763058 63.43880637 22.07712963 65.63178824 14.19140625 63.4375 C6.86126153 60.59182857 0.13372715 55.78628503 -3.16357422 48.54760742 C-4.92438002 43.6548363 -4.96163149 39.06388988 -4.890625 33.91015625 C-4.88875183 32.96941757 -4.88687866 32.02867889 -4.88494873 31.05943298 C-4.87826606 29.08703016 -4.86442779 27.11463973 -4.84375 25.14233398 C-4.81234195 22.10973933 -4.80274909 19.07766375 -4.796875 16.04492188 C-4.78771424 14.1249936 -4.77734145 12.20507063 -4.765625 10.28515625 C-4.76137512 9.37484146 -4.75712524 8.46452667 -4.75274658 7.52662659 C-4.66708653 0.08187871 -4.66708653 0.08187871 0 0 Z " fill="#1A1A18" transform="translate(11.5625,4.9375)"/>
<path d="M0 0 C3.625 1.5 3.625 1.5 6 3 C5.4140625 4.83984375 5.4140625 4.83984375 4 7 C1.0234375 8.37890625 1.0234375 8.37890625 -2.625 9.5625 C-3.89472441 9.98379329 -5.16425691 10.40566542 -6.43359375 10.828125 C-7.61050781 11.21484375 -8.78742188 11.6015625 -10 12 C-11.56653221 12.59363326 -13.13008069 13.1953544 -14.6875 13.8125 C-18 15 -18 15 -21 15 C-21 11.07488565 -20.88776626 8.99312753 -18.22265625 6.01171875 C-12.04448657 0.61559586 -8.23745366 -0.75572969 0 0 Z " fill="#F1F1F1" transform="translate(179,26)"/>
<path d="M0 0 C0.66 0.33 1.32 0.66 2 1 C2.20761649 2.99311826 2.31472467 4.99700427 2.375 7 C2.82472783 14.18775532 4.39610746 19.55914199 8.75 25.3125 C14.85666076 29.89249557 20.03384393 31.44969351 27.6796875 31.7265625 C30 32 30 32 32 34 C23.44378102 34.61604777 16.36624588 34.97718511 9.08984375 29.84375 C4.18477756 25.51628973 0.25415475 20.52160468 -1 14 C-1.5323741 3.0647482 -1.5323741 3.0647482 0 0 Z " fill="#181715" transform="translate(61,34)"/>
<path d="M0 0 C0 0.99 0 1.98 0 3 C-0.72445313 2.96519531 -1.44890625 2.93039063 -2.1953125 2.89453125 C-7.87719737 2.73543847 -12.17034931 2.61924452 -17 6 C-19.90048015 9.20052982 -20.90989656 11.85118111 -21.25 16.1875 C-20.88060028 21.82084579 -19.55740954 26.22010338 -15.8125 30.5 C-14.9153125 31.2425 -14.9153125 31.2425 -14 32 C-20.76762661 30.36643496 -20.76762661 30.36643496 -22.625 27.4375 C-25.3603222 20.5991945 -25.86782841 13.88015714 -23 7 C-17.47434704 1.08883637 -8.05340979 -4.02670489 0 0 Z " fill="#131110" transform="translate(367,25)"/>
<path d="M0 0 C4.875 0.875 4.875 0.875 6 2 C6.14115161 4.67058851 6.04247107 7.32432238 6 10 C10.29 10 14.58 10 19 10 C19.495 12.97 19.495 12.97 20 16 C18.68 16.33 17.36 16.66 16 17 C16 15.68 16 14.36 16 13 C13.56612247 11.78306124 11.58161154 11.68040104 8.875 11.4375 C7.96492188 11.35371094 7.05484375 11.26992188 6.1171875 11.18359375 C5.06917969 11.09271484 5.06917969 11.09271484 4 11 C3.67 8.36 3.34 5.72 3 3 C1.39490066 4.43645851 -0.20904424 5.87420706 -1.8125 7.3125 C-3.15248047 8.51326172 -3.15248047 8.51326172 -4.51953125 9.73828125 C-5.33808594 10.48464844 -6.15664062 11.23101562 -7 12 C-7.58136719 12.52980469 -8.16273438 13.05960938 -8.76171875 13.60546875 C-10.25165311 15.09922666 -10.25165311 15.09922666 -11 18 C-11.99 17.67 -12.98 17.34 -14 17 C-13.40364189 13.42185133 -12.000066 11.45577139 -9.625 8.75 C-9.01914063 8.04359375 -8.41328125 7.3371875 -7.7890625 6.609375 C-6 5 -6 5 -3 5 C-3 4.34 -3 3.68 -3 3 C-2.34 3 -1.68 3 -1 3 C-0.67 2.01 -0.34 1.02 0 0 Z " fill="#12110F" transform="translate(259,9)"/>
<path d="M0 0 C0.66 0.33 1.32 0.66 2 1 C2.5336441 3.84610185 2.79612119 5.27044163 2 8 C-0.23895859 10.19606667 -2.56800094 12.00388498 -5.12890625 13.8125 C-7.35724304 15.94834761 -7.35724304 15.94834761 -7.0625 19.37890625 C-5.85390975 23.49788846 -4.25490811 25.72327384 -1.4375 28.9375 C-0.61121094 29.89527344 0.21507812 30.85304688 1.06640625 31.83984375 C1.70449219 32.55269531 2.34257812 33.26554687 3 34 C1.515 34.495 1.515 34.495 0 35 C-1.79419526 33.06478939 -3.58541329 31.1269646 -5.375 29.1875 C-6.13683594 28.36668945 -6.13683594 28.36668945 -6.9140625 27.52929688 C-9.15216303 25.09977985 -11.16379112 22.75431332 -13 20 C-12.85044409 17.05673974 -12.02794288 16.02996615 -10.00390625 13.859375 C-8.79541016 12.81523438 -8.79541016 12.81523438 -7.5625 11.75 C-6.75941406 11.04359375 -5.95632813 10.3371875 -5.12890625 9.609375 C-3 8 -3 8 -1 8 C-1.020625 6.865625 -1.04125 5.73125 -1.0625 4.5625 C-1 1 -1 1 0 0 Z " fill="#1A1917" transform="translate(420,25)"/>
<path d="M0 0 C0.66 0.99 1.32 1.98 2 3 C-2.50098634 9.24330363 -8.33424242 13.46684848 -16 15 C-22.6634825 15.67994719 -27.93407969 13.45708164 -34 11 C-34 10.67 -34 10.34 -34 10 C-32.96101562 10.10699219 -31.92203125 10.21398437 -30.8515625 10.32421875 C-19.07217742 11.53241087 -19.07217742 11.53241087 -8 8 C-5.0562212 5.54845962 -2.47983407 2.91622945 0 0 Z " fill="#1B1B18" transform="translate(195,54)"/>
<path d="M0 0 C-0.33 0.66 -0.66 1.32 -1 2 C-3.18125193 2.20717454 -5.37226382 2.31461173 -7.5625 2.375 C-15.93637084 2.87290455 -15.93637084 2.87290455 -23 7 C-24.7336451 9.5430276 -25.87446841 12.14716746 -27 15 C-27.65548612 16.33886526 -28.3191624 17.67384677 -29 19 C-29.86002119 9.32953952 -29.86002119 9.32953952 -26.875 5.5625 C-19.18157971 -1.29467896 -9.82143297 -2.53456335 0 0 Z " fill="#111110" transform="translate(233,18)"/>
<path d="M0 0 C0.66 0.33 1.32 0.66 2 1 C1.34 1.66 0.68 2.32 0 3 C-2.78868759 12.35030544 -3.17080055 21.85991199 -3.5625 31.5625 C-3.60568359 32.57119141 -3.64886719 33.57988281 -3.69335938 34.61914062 C-3.79829618 37.07932575 -3.90045701 39.53959175 -4 42 C-7.19936406 37.2009539 -6.32798256 32.01684367 -6.3125 26.375 C-6.32861328 25.22386719 -6.34472656 24.07273437 -6.36132812 22.88671875 C-6.36604531 14.61278115 -5.84351248 6.40003748 0 0 Z " fill="#363535" transform="translate(121,23)"/>
<path d="M0 0 C3.625 0.375 3.625 0.375 7 1 C7.625 4.375 7.625 4.375 8 8 C6 10 6 10 2.375 10.125 C1.26125 10.08375 0.1475 10.0425 -1 10 C-2.36118461 7.75804887 -3.06138028 6.52173238 -2.75 3.875 C-2 2 -2 2 0 0 Z " fill="#101010" transform="translate(433,60)"/>
<path d="M0 0 C3.21116795 0.51793031 6.04399219 1.39900244 9.0625 2.5625 C13.93007743 4.26697156 18.38701446 4.16463146 23.49609375 3.91015625 C26 4 26 4 28 6 C20.66536298 8.09808766 14.25357876 9.09700242 7.2109375 5.625 C4.7264262 4.16928634 2.32048002 2.70523793 0 1 C0 0.67 0 0.34 0 0 Z " fill="#1F1F1C" transform="translate(343,61)"/>
<path d="M0 0 C0.66 0.33 1.32 0.66 2 1 C1.29875 1.680625 0.5975 2.36125 -0.125 3.0625 C-1.08831715 4.03676393 -2.04621157 5.01640569 -3 6 C-3.515625 6.53109375 -4.03125 7.0621875 -4.5625 7.609375 C-8.41203737 11.80537073 -10.28544236 15.57056749 -12 21 C-12.66 20.34 -13.32 19.68 -14 19 C-13.11144758 13.57983022 -11.98181962 9.98181962 -8 6 C-7.34 6 -6.68 6 -6 6 C-6 5.01 -6 4.02 -6 3 C-4.03533587 1.93224776 -2.03144641 0.93446535 0 0 Z " fill="#161514" transform="translate(163,19)"/>
<path d="M0 0 C0.33 0.99 0.66 1.98 1 3 C0.51660156 3.38285156 0.03320312 3.76570313 -0.46484375 4.16015625 C-2.51085752 6.61224909 -2.42960451 8.27801698 -2.5625 11.4375 C-2.73044095 15.17800306 -3.08792326 17.75177326 -5 21 C-6.65 21 -8.3 21 -10 21 C-9.67 20.34 -9.34 19.68 -9 19 C-8.01 19 -7.02 19 -6 19 C-6.06960938 18.04738281 -6.13921875 17.09476563 -6.2109375 16.11328125 C-6.64788065 5.99076486 -6.64788065 5.99076486 -4.6640625 2.95703125 C-3 1.625 -3 1.625 0 0 Z " fill="#232322" transform="translate(400,48)"/>
<path d="M0 0 C-7.86842105 6.05263158 -7.86842105 6.05263158 -12.25 8 C-14.52054527 9.29745444 -14.93307297 10.65276054 -16 13 C-17.625 14.75 -17.625 14.75 -19 16 C-19.33 15.34 -19.66 14.68 -20 14 C-16.35654942 8.02474105 -12.22309031 2.48758014 -5.75 -0.5 C-3 -1 -3 -1 0 0 Z " fill="#171614" transform="translate(82,18)"/>
<path d="M0 0 C1.98 0.66 3.96 1.32 6 2 C6.625 4.875 6.625 4.875 7 8 C5 10 5 10 2.93701172 10.22705078 C1.69588623 10.21134033 1.69588623 10.21134033 0.4296875 10.1953125 C-0.46621094 10.18886719 -1.36210937 10.18242187 -2.28515625 10.17578125 C-3.22230469 10.15902344 -4.15945312 10.14226563 -5.125 10.125 C-6.06988281 10.11597656 -7.01476562 10.10695313 -7.98828125 10.09765625 C-10.32577292 10.07404522 -12.66276123 10.04111516 -15 10 C-15 9.67 -15 9.34 -15 9 C-12.36 9 -9.72 9 -7 9 C-7 8.34 -7 7.68 -7 7 C-3.7 7.33 -0.4 7.66 3 8 C3.33 6.35 3.66 4.7 4 3 C2.68 2.67 1.36 2.34 0 2 C0 1.34 0 0.68 0 0 Z " fill="#161513" transform="translate(234,19)"/>
<path d="M0 0 C5.88220188 -0.82350826 10.15180121 0.84867078 15 4 C16.75390625 5.5 16.75390625 5.5 18 7 C17.6875 9.1875 17.6875 9.1875 17 11 C16.2575 10.21625 15.515 9.4325 14.75 8.625 C10.84907523 4.90138999 8.09639346 3.79708369 2.75 3.375 C1.85796875 3.30023437 0.9659375 3.22546875 0.046875 3.1484375 C-0.96632813 3.07496094 -0.96632813 3.07496094 -2 3 C-1.34 2.01 -0.68 1.02 0 0 Z " fill="#1A1918" transform="translate(30,24)"/>
<path d="M0 0 C1.26621664 3.79864992 0.93953998 7.19593832 0.6875 11.125 C0.65205078 11.86621094 0.61660156 12.60742188 0.58007812 13.37109375 C0.46477495 15.25380523 0.24065411 17.12917586 0 19 C-0.66 19.33 -1.32 19.66 -2 20 C-3.16009247 16.51972258 -3.20416521 13.66678357 -3.25 10 C-3.27578125 8.7625 -3.3015625 7.525 -3.328125 6.25 C-3 3 -3 3 -1.484375 1.0625 C-0.99453125 0.711875 -0.5046875 0.36125 0 0 Z " fill="#121110" transform="translate(338,32)"/>
<path d="M0 0 C-4.82712396 4.91707037 -9.88007493 9.74878981 -16 13 C-14.41806484 7.1995711 -9.97582713 2.85276593 -4.9609375 -0.26953125 C-3 -1 -3 -1 0 0 Z " fill="#131110" transform="translate(299,19)"/>
<path d="M0 0 C2.31 0 4.62 0 7 0 C6.34 0.433125 5.68 0.86625 5 1.3125 C4.34 1.869375 3.68 2.42625 3 3 C3 3.99 3 4.98 3 6 C5.64 7.32 8.28 8.64 11 10 C11 10.66 11 11.32 11 12 C9.53984709 11.71758359 8.08190207 11.42373386 6.625 11.125 C5.81289062 10.96257812 5.00078125 10.80015625 4.1640625 10.6328125 C2 10 2 10 0 8 C-0.26991906 5.31160615 -0.08737357 2.70858064 0 0 Z " fill="#171614" transform="translate(204,56)"/>
<path d="M0 0 C0.680625 0.00515625 1.36125 0.0103125 2.0625 0.015625 C7.06441327 0.09470663 7.06441327 0.09470663 9.375 1.25 C9.375 2.57 9.375 3.89 9.375 5.25 C8.715 5.25 8.055 5.25 7.375 5.25 C7.045 4.59 6.715 3.93 6.375 3.25 C0.435 3.25 -5.505 3.25 -11.625 3.25 C-7.27918312 -0.00936266 -5.1090052 -0.15659786 0 0 Z " fill="#171615" transform="translate(136.625,17.75)"/>
<path d="M0 0 C0.99 0.33 1.98 0.66 3 1 C-2.5960652 5.74449006 -5.16376673 7.15197973 -12.625 7.0625 C-13.33140625 7.05798828 -14.0378125 7.05347656 -14.765625 7.04882812 C-16.51045275 7.03703875 -18.255237 7.01910324 -20 7 C-20 6.67 -20 6.34 -20 6 C-18.72125 5.9175 -17.4425 5.835 -16.125 5.75 C-10.99329819 5.19610203 -3.78749577 3.78749577 0 0 Z " fill="#31302F" transform="translate(236,62)"/>
<path d="M0 0 C0.66 0.33 1.32 0.66 2 1 C-2.82712396 5.91707037 -7.88007493 10.74878981 -14 14 C-12.64527694 8.41176736 -8.41886827 5.30998246 -4 2 C-1.8671875 0.73046875 -1.8671875 0.73046875 0 0 Z " fill="#181615" transform="translate(351,18)"/>
<path d="M0 0 C3.375 -0.1875 3.375 -0.1875 7 0 C9 3 9 3 8.875 4.9375 C7.73064619 7.6349054 6.21856235 9.10769682 4 11 C3.01 11.33 2.02 11.66 1 12 C1.433125 11.1646875 1.433125 11.1646875 1.875 10.3125 C3.0413253 7.91505355 4.0339881 5.48403061 5 3 C2.525 2.01 2.525 2.01 0 1 C0 0.67 0 0.34 0 0 Z " fill="#1C1D1A" transform="translate(371,54)"/>
<path d="M0 0 C3.54943619 1.91861416 5.9396927 3.502269 8 7 C8.29296875 10.015625 8.29296875 10.015625 8.1875 13.25 C8.16042969 14.32765625 8.13335937 15.4053125 8.10546875 16.515625 C8.07066406 17.33546875 8.03585938 18.1553125 8 19 C7.34 19.33 6.68 19.66 6 20 C6.0825 19.01 6.165 18.02 6.25 17 C6.28280379 12.96513442 4.85907356 10.24144715 2.875 6.796875 C2 5 2 5 2 2 C1.34 2 0.68 2 0 2 C0 1.34 0 0.68 0 0 Z " fill="#1A1A18" transform="translate(96,28)"/>
<path d="M0 0 C1.67251204 2.50876806 2.46856044 4.15952934 3.375 6.9375 C4.63267775 10.4396488 6.08609055 12.58848873 9 15 C2.24657534 13.36986301 2.24657534 13.36986301 0.25 10.375 C-1.21232802 6.42671434 -0.89388075 4.06309431 0 0 Z " fill="#1A1816" transform="translate(344,42)"/>
<path d="M0 0 C1.98828125 -0.328125 1.98828125 -0.328125 4.3125 -0.25 C5.11171875 -0.22421875 5.9109375 -0.1984375 6.734375 -0.171875 C9.21879552 0.01659828 11.58641295 0.37713883 14 1 C13.67 1.66 13.34 2.32 13 3 C8.05 3 3.1 3 -2 3 C-1.34 2.01 -0.68 1.02 0 0 Z " fill="#1A1A19" transform="translate(219,17)"/>
<path d="M0 0 C0.33 0.99 0.66 1.98 1 3 C-2.14594657 7.671254 -4.3616163 9.68874798 -10 11 C-8.85455923 7.56367769 -7.7288492 6.66528415 -5 4.375 C-4.278125 3.76398437 -3.55625 3.15296875 -2.8125 2.5234375 C-2.214375 2.02070312 -1.61625 1.51796875 -1 1 C-0.67 0.67 -0.34 0.34 0 0 Z " fill="#131210" transform="translate(49,48)"/>
<path d="M0 0 C3.25 -0.375 3.25 -0.375 6 0 C2.98112756 3.48331435 0.43090471 4.79157144 -4 6 C-2.375 3 -2.375 3 0 0 Z " fill="#161615" transform="translate(189,49)"/>
</svg>
