<?xml version="1.0" encoding="UTF-8"?>
<svg version="1.1" xmlns="http://www.w3.org/2000/svg" width="445" height="75">
<path d="M0 0 C2.97 0 5.94 0 9 0 C9 5.94 9 11.88 9 18 C9.66 18 10.32 18 11 18 C11 17.01 11 16.02 11 15 C19.10669799 11.64550428 27.8988112 10.22684201 36.5 12.7265625 C44.46699277 16.43845686 49.23135555 23.28008956 53 31 C53.268125 30.35933594 53.53625 29.71867187 53.8125 29.05859375 C57.10686726 21.78714496 60.93711878 16.43994276 68.26953125 12.90625 C76.61418259 9.83564576 83.85540316 10.76843416 92 14 C98.54439693 17.16913709 101.89128938 22.58437238 105 29 C106.66375238 34.31129288 106.18437635 39.9305114 106.1875 45.4375 C106.19974609 46.56994141 106.21199219 47.70238281 106.22460938 48.86914062 C106.22654297 49.96291016 106.22847656 51.05667969 106.23046875 52.18359375 C106.23457764 53.17931396 106.23868652 54.17503418 106.24291992 55.20092773 C105.98180735 58.20962691 105.43474157 60.34259878 104 63 C100.875 63.8125 100.875 63.8125 98 64 C97.01 62.68 96.02 61.36 95 60 C94.39671875 60.20496094 93.7934375 60.40992188 93.171875 60.62109375 C92.37265625 60.89050781 91.5734375 61.15992188 90.75 61.4375 C89.96109375 61.70433594 89.1721875 61.97117188 88.359375 62.24609375 C81.12090603 64.55904824 74.94769565 65.22587222 67.875 61.9375 C59.13325801 57.0779602 55.06359908 51.45719716 52 42 C51.79697266 42.8353125 51.79697266 42.8353125 51.58984375 43.6875 C49.58438716 50.79666349 46.2115713 56.28133644 39.90625 60.3515625 C33.44469316 63.70289235 27.26667994 64.89789436 20 64 C12.65993541 61.63437677 6.52089383 57.23463092 2 51 C-1.78920205 41.9168821 -1.402155 32.04621491 -1.28125 22.39648438 C-1.24962703 19.84490571 -1.24022095 17.29394426 -1.234375 14.7421875 C-1.22522093 13.1171799 -1.21485031 11.49217858 -1.203125 9.8671875 C-1.19887512 9.10582489 -1.19462524 8.34446228 -1.19024658 7.56002808 C-1.11735242 2.23470485 -1.11735242 2.23470485 0 0 Z M64 29 C62.28789552 34.23508871 61.65269034 40.30990185 64.1640625 45.32421875 C66.85944783 49.063202 69.60548871 52.36483301 74 54 C79.92801534 54.78442547 84.79279683 54.1042942 90 51 C93.04677308 47.73221748 95.27227049 44.46167497 96 40 C94.97649961 33.85899765 93.00690302 28.82826265 89 24 C80.00809104 17.60575363 70.71891516 21.12927081 64 29 Z M12 27 C9.2849898 31.72937261 8.23951914 35.58157384 9 41 C11.31032948 46.05800528 14.31938641 49.92064895 19 53 C21.88211302 53.96070434 23.69850044 54.10581883 26.6875 54.0625 C27.49574219 54.05347656 28.30398437 54.04445312 29.13671875 54.03515625 C29.75160156 54.02355469 30.36648437 54.01195312 31 54 C31.33 53.01 31.66 52.02 32 51 C32.763125 50.71125 33.52625 50.4225 34.3125 50.125 C37.96417947 48.59638999 39.10083322 47.51697553 41 44 C41.80509541 37.54134575 41.8927826 32.41442184 38 27 C32.77602896 22.29842607 28.65803465 21.57847578 21.796875 21.66015625 C17.49533138 22.18282985 14.85080056 23.77559025 12 27 Z " fill="#020202" transform="translate(7,5)"/>
<path d="M0 0 C7.53219196 5.16836576 11.43764877 11.24529998 14 20 C14.17015625 19.41992188 14.3403125 18.83984375 14.515625 18.2421875 C17.31173454 9.22919612 20.88573324 4.33663375 29.0625 -0.578125 C35.50335417 -3.6957725 41.98096775 -3.60624698 48.8203125 -1.79296875 C53.56081057 -0.06837895 57.9757 1.900185 60.25 6.5625 C60 9 60 9 58.4375 11.375 C56 13 56 13 52.875 12.875 C50 12 50 12 48 10 C42.29659754 8.59005107 37.0135182 8.57343335 31.625 10.99609375 C27.7576624 13.3852903 27.13125448 16.44685612 26.125 20.6875 C25.66288533 25.6387286 26.72600459 30.58335909 29 35 C33.60113314 37.93053916 38.62831438 38.74953753 44 38 C46.11143594 37.09793419 46.11143594 37.09793419 48.125 35.9375 C51.02062274 34.33008737 51.90913902 33.99831739 55.375 34.0625 C58 35 58 35 60 38 C60.125 40.375 60.125 40.375 59 43 C53.3103067 47.92730263 46.97221082 49.55864324 39.625 50.375 C33.2916486 49.71982572 26.76262008 47.34657511 22 43 C22 42.01 22 41.02 22 40 C21.01 40 20.02 40 19 40 C17.68 37.36 16.36 34.72 15 32 C14.96261719 32.80824219 14.92523438 33.61648437 14.88671875 34.44921875 C14.82097656 35.51785156 14.75523437 36.58648437 14.6875 37.6875 C14.60048828 39.27111328 14.60048828 39.27111328 14.51171875 40.88671875 C13.95121563 44.29680264 13.14596057 46.29767928 11 49 C7.3125 49.3125 7.3125 49.3125 4 49 C3.505 47.02 3.505 47.02 3 45 C2.40832031 45.27714844 1.81664062 45.55429688 1.20703125 45.83984375 C-6.53470224 49.38866449 -13.63491982 51.70930297 -22.0625 48.75 C-26.9785344 46.72631205 -31.00854998 44.48717502 -34 40 C-34 39.01 -34 38.02 -34 37 C-34.99 37 -35.98 37 -37 37 C-40.24525863 29.00275552 -41.71121931 21.53439612 -38.375 13.3125 C-34.58067744 5.80345606 -29.93284492 0.98686064 -22 -2 C-14.56124875 -4.20081398 -6.92258526 -3.47356672 0 0 Z M-26.4375 12.5625 C-29.12947674 16.76198371 -29.48535952 20.06840058 -29 25 C-27.73743463 30.05954505 -25.72329927 34.27670073 -22 38 C-17.73749262 40.55750443 -12.82659029 40.91552628 -8 40 C-3.71120606 37.84445365 -0.7685578 35.0807844 2 31.1875 C3.75134228 25.60509647 4.0237577 21.04751539 1.375 15.75 C-2.37382579 11.40925435 -6.16669926 7.22666406 -12.125 6.75 C-17.96710885 7.12691025 -22.34224481 8.25723172 -26.4375 12.5625 Z " fill="#030303" transform="translate(320,19)"/>
<path d="M0 0 C4.42217071 4.69930948 6.14135241 7.49778908 6 14 C-1.14928791 17.73903512 -8.41734615 20.89850099 -15.9375 23.8125 C-17.47760742 24.42254883 -17.47760742 24.42254883 -19.04882812 25.04492188 C-20.03173828 25.42841797 -21.01464844 25.81191406 -22.02734375 26.20703125 C-22.91156006 26.5522583 -23.79577637 26.89748535 -24.70678711 27.25317383 C-27 28 -27 28 -30 28 C-28.86308867 31.410734 -28.4839887 31.63146566 -25.4375 33.1875 C-20.95475461 35.26076974 -17.91509342 35.62413885 -13 35 C-9.47293654 33.61739113 -6.67763648 31.94869107 -4.4375 28.8125 C-3 27 -3 27 0 26.0625 C3 26 3 26 4.9375 27 C6.23372252 29.43994827 6.41895049 31.31304196 5.89453125 34.02734375 C3.40370772 39.52020786 -2.51312105 43.65312584 -7.9375 46 C-15.53693219 48.30240223 -22.49787594 47.48790754 -29.67578125 44.25390625 C-35.89765592 40.89723101 -39.70580193 37.06390151 -42.27734375 30.41796875 C-45.08224836 21.03290954 -43.68730755 13.5985574 -39.5 4.875 C-39.005 4.25625 -38.51 3.6375 -38 3 C-37.01 3 -36.02 3 -35 3 C-35 2.01 -35 1.02 -35 0 C-24.4526541 -7.03156393 -10.17800299 -8.72400256 0 0 Z M-29 8 C-32.10103182 11.72123818 -33 13.11353925 -33 18 C-23.78657365 16.49234842 -15.52557288 12.66080856 -7 9 C-10.31352477 5.45795628 -12.26845509 4.1697593 -17.1875 3.6875 C-21.87772332 4.07194453 -25.16438774 5.28761476 -29 8 Z " fill="#030302" transform="translate(192,22)"/>
<path d="M0 0 C3.25 1.625 3.25 1.625 5.25 3.625 C4.875 7.25 4.875 7.25 4.25 10.625 C-3.72490128 11.95415021 -11.69186719 11.71301359 -19.75 11.625 C-19.75 13.275 -19.75 14.925 -19.75 16.625 C-18.91082031 16.71974609 -18.91082031 16.71974609 -18.0546875 16.81640625 C-12.2893055 17.69697102 -7.4330988 19.48167888 -2.25 22.0625 C-1.63882324 22.36293213 -1.02764648 22.66336426 -0.39794922 22.97290039 C2.75767699 24.60025514 4.23813505 25.60720258 6.25 28.625 C7.4208188 33.16742483 7.46840106 36.85417274 6.1875 41.375 C3.44104727 45.98195296 0.45567055 48.88977648 -4.75 50.625 C-14.49648389 51.19445749 -22.82804753 51.08597623 -31.75 46.625 C-31.75 43.655 -31.75 40.685 -31.75 37.625 C-30.16676312 37.597807 -28.58338938 37.57851694 -27 37.5625 C-26.11828125 37.55089844 -25.2365625 37.53929687 -24.328125 37.52734375 C-21.95185434 37.617354 -20.03260787 38.01535939 -17.75 38.625 C-13.57668238 38.776757 -9.81161075 38.60963291 -5.75 37.625 C-5.75 36.635 -5.75 35.645 -5.75 34.625 C-6.27207031 34.45484375 -6.79414063 34.2846875 -7.33203125 34.109375 C-8.90308727 33.59210962 -10.47191052 33.06803809 -12.0390625 32.5390625 C-13.88381055 31.91705812 -15.73301799 31.30815949 -17.5859375 30.7109375 C-29.75792834 26.60914333 -29.75792834 26.60914333 -32.75 20.625 C-33.37578206 14.71617327 -32.92051452 9.7770861 -29.75 4.625 C-21.36048274 -2.12157013 -10.20634603 -3.72165104 0 0 Z " fill="#030303" transform="translate(235.75,18.375)"/>
<path d="M0 0 C0.33 10.23 0.66 20.46 1 31 C3.97 28.525 3.97 28.525 7 26 C7.99 26 8.98 26 10 26 C10.04125 25.443125 10.0825 24.88625 10.125 24.3125 C11.43913193 20.83943704 13.93268843 18.91440096 17 17 C20.125 16 20.125 16 23 16 C25.375 17.4375 25.375 17.4375 27 19 C26.88950112 23.53045394 25.6684207 25.69369167 22.5625 28.8125 C20.72573786 30.54956315 19.26130701 31.8693465 17 33 C17.43681021 39.18969367 20.53609119 42.56251762 24.49414062 46.96875 C27.11904524 50.10499967 28.31822786 52.1909241 28.37109375 56.3515625 C28 60 28 60 27 61 C21.26388889 61.27314815 21.26388889 61.27314815 19 61 C18.34 60.34 17.68 59.68 17 59 C17 57.68 17 56.36 17 55 C16.40703125 54.91492187 15.8140625 54.82984375 15.203125 54.7421875 C12.37071712 53.78800754 11.49041146 52.52465822 9.75 50.125 C9.22921875 49.42632812 8.7084375 48.72765625 8.171875 48.0078125 C7 46 7 46 7 43 C4.4212538 44.07926015 4.4212538 44.07926015 2 46 C1.32776334 48.82099611 1.32776334 48.82099611 1.4375 51.9375 C1.43065746 57.45942578 1.43065746 57.45942578 -0.8671875 60.34375 C-3 62 -3 62 -5.5625 62.5625 C-8 62 -8 62 -9.63183594 60.05249023 C-11.52321621 55.8326602 -11.39294729 52.16971643 -11.328125 47.59765625 C-11.32625183 46.68350449 -11.32437866 45.76935272 -11.32244873 44.82749939 C-11.31573495 42.89171708 -11.30183383 40.95594818 -11.28125 39.02026367 C-11.2504371 36.10387078 -11.24030544 33.18802312 -11.234375 30.27148438 C-11.19149786 20.13981125 -10.92681651 10.09475612 -10 0 C-6.04369799 -1.36948916 -4.66750453 -0.77791742 0 0 Z " fill="#030303" transform="translate(396,8)"/>
<path d="M0 0 C1.99954746 -0.04254356 4.00041636 -0.04080783 6 0 C8.04698414 2.04698414 7.70045693 6.30411241 8 9 C9.03060547 8.96519531 9.03060547 8.96519531 10.08203125 8.9296875 C11.43361328 8.90261719 11.43361328 8.90261719 12.8125 8.875 C13.70582031 8.85179687 14.59914063 8.82859375 15.51953125 8.8046875 C18 9 18 9 21 11 C21.4375 13.9375 21.4375 13.9375 21 17 C19.5 18.875 19.5 18.875 17 20 C13.52599765 20.37074333 10.19341626 20.59670813 7 19 C7.33 19.66 7.66 20.32 8 21 C8.15411106 23.0307477 8.24982453 25.06606421 8.31640625 27.1015625 C8.35830078 28.31328125 8.40019531 29.525 8.44335938 30.7734375 C8.48267578 32.04445312 8.52199219 33.31546875 8.5625 34.625 C8.60568359 35.90375 8.64886719 37.1825 8.69335938 38.5 C8.7996981 41.66653082 8.9003767 44.83325079 9 48 C12.96 48.33 16.92 48.66 21 49 C22.125 54.625 22.125 54.625 21 58 C17.19192911 60.06270507 13.78266041 60.29749068 9.5 60.3125 C8.3965625 60.32925781 7.293125 60.34601563 6.15625 60.36328125 C2.6428726 59.95889499 0.80767074 59.11570934 -2 57 C-6.13221481 50.21136138 -6.1588742 43.83702515 -6.125 36.125 C-6.12886719 35.25230469 -6.13273438 34.37960938 -6.13671875 33.48046875 C-6.12929903 28.5463558 -5.83494166 23.86386648 -5 19 C-7.31 19 -9.62 19 -12 19 C-12.734375 16.80078125 -12.734375 16.80078125 -13 14 C-11.453125 11.54296875 -11.453125 11.54296875 -9.25 9.1875 C-8.53328125 8.39730469 -7.8165625 7.60710938 -7.078125 6.79296875 C-5 5 -5 5 -2 5 C-2 4.34 -2 3.68 -2 3 C-1.34 3 -0.68 3 0 3 C0 2.01 0 1.02 0 0 Z " fill="#030301" transform="translate(258,9)"/>
<path d="M0 0 C0.25660094 3.07921132 0.39431504 5.21136993 -1 8 C-3.87182587 8.47618812 -6.67120147 8.84167597 -9.5625 9.125 C-10.36880859 9.21136719 -11.17511719 9.29773437 -12.00585938 9.38671875 C-14.00304064 9.59943628 -16.00142737 9.80077855 -18 10 C-19.43696833 17.99755323 -19.3084047 26.11250714 -19.4296875 34.21679688 C-19.460625 35.38404297 -19.4915625 36.55128906 -19.5234375 37.75390625 C-19.54325684 38.80908447 -19.56307617 39.8642627 -19.58349609 40.95141602 C-20.06236089 44.45644807 -21.27313352 46.93482634 -23 50 C-24.98 49.67 -26.96 49.34 -29 49 C-31.51648985 42.33653024 -31.33067533 36.16975802 -31.3125 29.125 C-31.32861328 27.88363281 -31.34472656 26.64226563 -31.36132812 25.36328125 C-31.36547442 17.57654391 -31.2563054 11.06330282 -26.203125 4.7578125 C-19.15900289 -1.13107358 -8.45368364 -5.63578909 0 0 Z " fill="#030303" transform="translate(146,19)"/>
<path d="M0 0 C2.64 0 5.28 0 8 0 C8 0.66 8 1.32 8 2 C6.02 2 4.04 2 2 2 C2.09450294 6.51693336 2.20079344 11.03340009 2.31738281 15.54980469 C2.35534878 17.08195677 2.3902541 18.61418821 2.421875 20.14648438 C2.51379882 38.11020619 2.51379882 38.11020619 10 54 C12.50058155 56.07538145 15.08476629 57.58097585 18 59 C18.886875 59.45375 19.77375 59.9075 20.6875 60.375 C23.52810764 61.14273179 25.13572066 60.6378783 28 60 C29.93678017 59.64191784 31.87429326 59.28777833 33.8125 58.9375 C34.78832031 58.76089844 35.76414063 58.58429687 36.76953125 58.40234375 C37.87361328 58.20318359 37.87361328 58.20318359 39 58 C39 58.99 39 59.98 39 61 C31.81784258 63.91449866 24.99815808 65.63824301 17.42578125 63.15625 C10.64886926 60.08432665 3.96049013 55.6995021 1.00463867 48.61401367 C-1.3071936 39.8560158 -1.39389486 31.38695198 -1.28125 22.39648438 C-1.24962703 19.84490571 -1.24022095 17.29394426 -1.234375 14.7421875 C-1.22522093 13.1171799 -1.21485031 11.49217858 -1.203125 9.8671875 C-1.19887512 9.10582489 -1.19462524 8.34446228 -1.19024658 7.56002808 C-1.11735242 2.23470485 -1.11735242 2.23470485 0 0 Z " fill="#0D0D0D" transform="translate(7,5)"/>
<path d="M0 0 C0.66 0.66 1.32 1.32 2 2 C1.5625 4.25 1.5625 4.25 0 7 C-6.51296736 10.94410773 -13.42946384 12.62053575 -21 12 C-24.42134619 10.8545493 -27.7118777 9.48197061 -31 8 C-31 7.01 -31 6.02 -31 5 C-29.081875 5.4640625 -29.081875 5.4640625 -27.125 5.9375 C-19.3600381 7.63455928 -12.63283795 8.90047842 -5 6 C-3.824375 5.566875 -3.824375 5.566875 -2.625 5.125 C-0.80083474 4.09684182 -0.80083474 4.09684182 -0.25 1.875 C-0.1675 1.25625 -0.085 0.6375 0 0 Z " fill="#0B0B09" transform="translate(377,57)"/>
<path d="M0 0 C1 1 1 1 1.09765625 2.84765625 C1.04882812 5.92382812 1.04882812 5.92382812 1 9 C-2.78187881 10.83691257 -4.94568308 11.15837626 -9 10 C-10.32296047 3.62573591 -10.32296047 3.62573591 -9 1.0625 C-5.9783066 -0.54277462 -3.35290093 -0.24836303 0 0 Z " fill="#030303" transform="translate(440,60)"/>
<path d="M0 0 C-0.80824219 0.36351562 -1.61648437 0.72703125 -2.44921875 1.1015625 C-12.81817537 5.97959999 -16.78275118 10.39797782 -21 21 C-21.66 20.34 -22.32 19.68 -23 19 C-22.75704021 13.77636459 -20.68742135 10.33455057 -18 6 C-17.01 6 -16.02 6 -15 6 C-15 5.01 -15 4.02 -15 3 C-5.2572123 -2.80820036 -5.2572123 -2.80820036 0 0 Z " fill="#0A0A09" transform="translate(172,19)"/>
<path d="M0 0 C0.66 0.66 1.32 1.32 2 2 C0.75579353 2.5345256 -0.49570936 3.05208611 -1.75 3.5625 C-2.44609375 3.85253906 -3.1421875 4.14257812 -3.859375 4.44140625 C-6.30012784 5.07831803 -7.6403655 4.80248831 -10 4 C-10 4.66 -10 5.32 -10 6 C-10.928125 6.53625 -11.85625 7.0725 -12.8125 7.625 C-17.00033349 10.74534653 -17.5232822 13.07760734 -19 18 C-21.03692743 15.17093413 -21.00333036 14.02072225 -20.4375 10.5 C-18.30514709 5.30818422 -15.49851154 3.77700598 -10.625 1.25 C-6.79302292 -0.07137141 -4.02154144 -0.39426877 0 0 Z " fill="#090909" transform="translate(224,17)"/>
<path d="M0 0 C1.98 0 3.96 0 6 0 C6 3.3 6 6.6 6 10 C5.67 10 5.34 10 5 10 C5 7.36 5 4.72 5 2 C4.34 2 3.68 2 3 2 C3 2.66 3 3.32 3 4 C1.52646994 5.27705938 0.04746101 6.54926821 -1.4765625 7.765625 C-3.07795981 9.01932212 -3.07795981 9.01932212 -4.6875 10.6875 C-6 12 -6 12 -9 14 C-9.72382467 16.05925139 -9.72382467 16.05925139 -10 18 C-10.99 18 -11.98 18 -13 18 C-12.47164489 13.92309777 -11.35324283 11.74382266 -8.625 8.6875 C-8.01914063 7.99011719 -7.41328125 7.29273438 -6.7890625 6.57421875 C-5 5 -5 5 -2 5 C-2 4.34 -2 3.68 -2 3 C-1.34 3 -0.68 3 0 3 C0 2.01 0 1.02 0 0 Z " fill="#090908" transform="translate(258,9)"/>
<path d="M0 0 C0.33 0 0.66 0 1 0 C1.28244327 2.98362795 1.37482249 4.49036397 -0.43359375 6.94921875 C-7.47914027 13.06085267 -13.84118851 14.38973666 -23 14 C-22.34 13.01 -21.68 12.02 -21 11 C-19.03345859 10.73779448 -17.06507512 10.48261104 -15.08984375 10.296875 C-9.34756733 9.48114975 -5.79809799 6.11460616 -2 2 C-1.34 1.34 -0.68 0.68 0 0 Z " fill="#0C0D0A" transform="translate(195,54)"/>
<path d="M0 0 C0.33 1.32 0.66 2.64 1 4 C0.01 4.66 -0.98 5.32 -2 6 C-2.51045059 8.78727327 -2.51045059 8.78727327 -2.5625 11.9375 C-2.79314803 17.68972204 -2.79314803 17.68972204 -5 21 C-6.32 21 -7.64 21 -9 21 C-9 20.34 -9 19.68 -9 19 C-8.34 18.67 -7.68 18.34 -7 18 C-6.84727583 15.92060164 -6.77804678 13.83481069 -6.75 11.75 C-6.40412125 5.57165611 -6.40412125 5.57165611 -4.60546875 3.02734375 C-2.9375 1.6875 -2.9375 1.6875 0 0 Z " fill="#0D0D0D" transform="translate(400,48)"/>
<path d="M0 0 C-4 4 -4 4 -6 5.6875 C-8.9048386 9.04621963 -10.35603355 12.90757289 -12 17 C-12.33 17 -12.66 17 -13 17 C-13.49274935 9.85513437 -12.11975454 6.7697034 -7.5 1.1875 C-4.94472682 -0.8354246 -2.94940856 -1.47470428 0 0 Z " fill="#0A0A08" transform="translate(356,26)"/>
<path d="M0 0 C-1.375 1.5 -1.375 1.5 -3 3 C-3.66 3 -4.32 3 -5 3 C-5.33 3.66 -5.66 4.32 -6 5 C-6.78375 5.433125 -7.5675 5.86625 -8.375 6.3125 C-11.32890385 8.21143819 -12.29413541 9.99442906 -14 13 C-14.66 13 -15.32 13 -16 13 C-16.2421875 10.734375 -16.2421875 10.734375 -16 8 C-14.3203125 6.015625 -14.3203125 6.015625 -12.125 4.25 C-11.04605469 3.36054688 -11.04605469 3.36054688 -9.9453125 2.453125 C-6.4992169 -0.12106689 -4.26099793 -0.09263039 0 0 Z " fill="#0A0A0A" transform="translate(81,18)"/>
<path d="M0 0 C1.0117709 3.14773168 0.80009298 4.84965639 0 8 C-0.1192883 9.4779334 -0.1991841 10.95940884 -0.24609375 12.44140625 C-0.27896484 13.27220703 -0.31183594 14.10300781 -0.34570312 14.95898438 C-0.40703392 16.69842999 -0.4643084 18.43802324 -0.51757812 20.17773438 C-0.55173828 21.00724609 -0.58589844 21.83675781 -0.62109375 22.69140625 C-0.6461499 23.44623291 -0.67120605 24.20105957 -0.69702148 24.97875977 C-1 27 -1 27 -3 30 C-3.05859857 26.64590806 -3.09379582 23.29194983 -3.125 19.9375 C-3.14175781 18.99455078 -3.15851563 18.05160156 -3.17578125 17.08007812 C-3.21914285 10.85768848 -2.8246919 5.64938381 0 0 Z " fill="#0E0D0D" transform="translate(119,27)"/>
<path d="M0 0 C0.66 0 1.32 0 2 0 C2 0.66 2 1.32 2 2 C2.66 2.33 3.32 2.66 4 3 C4.103125 3.928125 4.20625 4.85625 4.3125 5.8125 C5.18323061 9.84952373 6.73911855 10.63586095 10 13 C10.33 13.99 10.66 14.98 11 16 C7 16 7 16 5.33203125 14.78515625 C1.15319353 10.04770784 0.02852984 6.2908306 0 0 Z " fill="#0B0A0A" transform="translate(61,46)"/>
<path d="M0 0 C0.33 0.99 0.66 1.98 1 3 C-2.32307692 6.93846154 -2.32307692 6.93846154 -5.75 7.25 C-6.4925 7.1675 -7.235 7.085 -8 7 C-5.61042731 3.75700849 -3.7952131 1.49097658 0 0 Z M-9 7 C-6.87491756 10.18762365 -6.4979837 12.26512223 -6 16 C-6.99 15.67 -7.98 15.34 -9 15 C-9 14.01 -9 13.02 -9 12 C-9.66 12 -10.32 12 -11 12 C-11 11.01 -11 10.02 -11 9 C-10.34 9 -9.68 9 -9 9 C-9 8.34 -9 7.68 -9 7 Z " fill="#0E0E0E" transform="translate(418,33)"/>
<path d="M0 0 C1.72880982 -0.05449838 3.45812712 -0.09301688 5.1875 -0.125 C6.15042969 -0.14820312 7.11335938 -0.17140625 8.10546875 -0.1953125 C11.12812778 0.0086456 13.26769985 0.73125368 16 2 C16 2.99 16 3.98 16 5 C16.66 5.33 17.32 5.66 18 6 C15.10362418 5.47338621 12.38077761 4.80860399 9.5625 3.9375 C6.18533377 3.04877204 3.46772756 2.83084256 0 3 C0 2.01 0 1.02 0 0 Z " fill="#0A090A" transform="translate(304,17)"/>
<path d="M0 0 C3.42106076 0.25341191 4.30782184 1.30782184 6.8125 3.8125 C9 7 9 7 8.8125 9.375 C8.544375 9.91125 8.27625 10.4475 8 11 C6.33333333 9.33333333 4.66666667 7.66666667 3 6 C2.401875 5.46375 1.80375 4.9275 1.1875 4.375 C0 3 0 3 0 0 Z " fill="#0C0C0C" transform="translate(413,50)"/>
<path d="M0 0 C0.66 0.33 1.32 0.66 2 1 C1.66226563 1.51949219 1.32453125 2.03898437 0.9765625 2.57421875 C-1.39891701 6.28848007 -3.55762815 9.80400915 -5 14 C-5.66 13.34 -6.32 12.68 -7 12 C-7 8.82829493 -6.62193941 6.76148814 -4.58984375 4.2734375 C-3.10994098 2.79703332 -1.55873902 1.39291572 0 0 Z " fill="#0C0C0B" transform="translate(156,26)"/>
<path d="M0 0 C1.37478516 0.01740234 1.37478516 0.01740234 2.77734375 0.03515625 C3.69644531 0.04417969 4.61554688 0.05320312 5.5625 0.0625 C6.27277344 0.07410156 6.98304688 0.08570312 7.71484375 0.09765625 C8.04484375 1.41765625 8.37484375 2.73765625 8.71484375 4.09765625 C1.33022837 4.46688702 1.33022837 4.46688702 -1.78515625 2.59765625 C-2.28015625 2.10265625 -2.77515625 1.60765625 -3.28515625 1.09765625 C-2.28515625 0.09765625 -2.28515625 0.09765625 0 0 Z " fill="#090908" transform="translate(268.28515625,17.90234375)"/>
<path d="M0 0 C0.99 0.33 1.98 0.66 3 1 C3 1.99 3 2.98 3 4 C-5.57142857 5.28571429 -5.57142857 5.28571429 -9 4 C-8.67 3.01 -8.34 2.02 -8 1 C-5.36 1.33 -2.72 1.66 0 2 C0 1.34 0 0.68 0 0 Z " fill="#090909" transform="translate(237,25)"/>
<path d="M0 0 C-1 2 -1 2 -3 4 C-5.75372909 4.36933645 -8.20365661 4.18336678 -11 4 C-11 3.34 -11 2.68 -11 2 C-9.73392393 1.46770674 -8.46189588 0.94955456 -7.1875 0.4375 C-6.47980469 0.14746094 -5.77210938 -0.14257812 -5.04296875 -0.44140625 C-3 -1 -3 -1 0 0 Z " fill="#0C0C0C" transform="translate(237,64)"/>
<path d="M0 0 C0.33 0.66 0.66 1.32 1 2 C0.34 2.66 -0.32 3.32 -1 4 C-3.3125 3.6875 -3.3125 3.6875 -6 3 C-7.3921875 2.7215625 -7.3921875 2.7215625 -8.8125 2.4375 C-9.534375 2.293125 -10.25625 2.14875 -11 2 C-11 1.34 -11 0.68 -11 0 C-7.0323069 -1.0502717 -3.98866127 -0.99716532 0 0 Z " fill="#0B0B0B" transform="translate(145,18)"/>
<path d="M0 0 C2 1.0625 2 1.0625 4 3 C4.25 6.6875 4.25 6.6875 4 10 C3.01 10 2.02 10 1 10 C-0.125 6.25 -0.125 6.25 1 4 C0.34 3.67 -0.32 3.34 -1 3 C-0.67 2.01 -0.34 1.02 0 0 Z " fill="#0B090A" transform="translate(329,34)"/>
<path d="M0 0 C3 1 3 1 4.6875 3.9375 C6 7 6 7 6 9 C3.15616877 7.7251791 0.86245982 6.54862922 -1 4 C-0.6875 1.8125 -0.6875 1.8125 0 0 Z " fill="#0B0B0A" transform="translate(344,47)"/>
<path d="M0 0 C0.66 0.33 1.32 0.66 2 1 C1.278125 1.556875 0.55625 2.11375 -0.1875 2.6875 C-3.06018175 4.97319636 -3.06018175 4.97319636 -5.6875 7.6875 C-8 10 -8 10 -10 11 C-9.34 9.35 -8.68 7.7 -8 6 C-7.01 6 -6.02 6 -5 6 C-5 5.01 -5 4.02 -5 3 C-2.625 1.25 -2.625 1.25 0 0 Z " fill="#020202" transform="translate(162,19)"/>
<path d="M0 0 C0.91007812 0.10183594 1.82015625 0.20367187 2.7578125 0.30859375 C3.45648438 0.39238281 4.15515625 0.47617188 4.875 0.5625 C4.545 1.2225 4.215 1.8825 3.875 2.5625 C0.245 2.5625 -3.385 2.5625 -7.125 2.5625 C-7.125 1.9025 -7.125 1.2425 -7.125 0.5625 C-4.50184968 -0.74907516 -2.89466564 -0.33399988 0 0 Z " fill="#0C0C0B" transform="translate(84.125,65.4375)"/>
<path d="M0 0 C0.33 0 0.66 0 1 0 C2.125 7.75 2.125 7.75 1 10 C0.01 9.67 -0.98 9.34 -2 9 C-2.25 3.375 -2.25 3.375 0 0 Z " fill="#0D0C0A" transform="translate(62,35)"/>
<path d="M0 0 C0.99 0.33 1.98 0.66 3 1 C1.68 3.31 0.36 5.62 -1 8 C-1.66 7.67 -2.32 7.34 -3 7 C-2.25 2.25 -2.25 2.25 0 0 Z " fill="#090909" transform="translate(288,23)"/>
<path d="M0 0 C0 0.99 0 1.98 0 3 C-2.70879335 4.35439668 -5.00933268 4.06501451 -8 4 C-8 3.34 -8 2.68 -8 2 C-2.25 0 -2.25 0 0 0 Z " fill="#0B0B09" transform="translate(98,63)"/>
<path d="M0 0 C-0.66 0.66 -1.32 1.32 -2 2 C-5.0625 1.75 -5.0625 1.75 -8 1 C-8.33 0.34 -8.66 -0.32 -9 -1 C-5.79937313 -2.60031344 -3.27728194 -1.03173691 0 0 Z " fill="#0B0B0B" transform="translate(216,66)"/>
<path d="M0 0 C2.5 1.8125 2.5 1.8125 5 4 C5 4.99 5 5.98 5 7 C1.83884224 5.63016497 1.0072908 5.0109362 -1 2 C-0.67 1.34 -0.34 0.68 0 0 Z " fill="#080808" transform="translate(43,27)"/>
<path d="" fill="#FFFFFF" transform="translate(0,0)"/>
<path d="" fill="#FFFFFF" transform="translate(0,0)"/>
<path d="" fill="#FFFFFF" transform="translate(0,0)"/>
<path d="" fill="#FFFFFF" transform="translate(0,0)"/>
<path d="" fill="#FFFFFF" transform="translate(0,0)"/>
<path d="" fill="#FFFFFF" transform="translate(0,0)"/>
<path d="" fill="#FFFFFF" transform="translate(0,0)"/>
<path d="" fill="#FFFFFF" transform="translate(0,0)"/>
<path d="" fill="#FFFFFF" transform="translate(0,0)"/>
<path d="" fill="#FFFFFF" transform="translate(0,0)"/>
<path d="" fill="#FFFFFF" transform="translate(0,0)"/>
<path d="" fill="#FFFFFF" transform="translate(0,0)"/>
<path d="" fill="#FFFFFF" transform="translate(0,0)"/>
<path d="" fill="#FFFFFF" transform="translate(0,0)"/>
<path d="" fill="#FFFFFF" transform="translate(0,0)"/>
<path d="" fill="#FFFFFF" transform="translate(0,0)"/>
<path d="" fill="#FFFFFF" transform="translate(0,0)"/>
<path d="" fill="#FFFFFF" transform="translate(0,0)"/>
<path d="" fill="#FFFFFF" transform="translate(0,0)"/>
<path d="" fill="#FFFFFF" transform="translate(0,0)"/>
<path d="" fill="#FFFFFF" transform="translate(0,0)"/>
<path d="" fill="#FFFFFF" transform="translate(0,0)"/>
<path d="" fill="#FFFFFF" transform="translate(0,0)"/>
<path d="" fill="#FFFFFF" transform="translate(0,0)"/>
<path d="" fill="#FFFFFF" transform="translate(0,0)"/>
<path d="" fill="#FFFFFF" transform="translate(0,0)"/>
<path d="" fill="#FFFFFF" transform="translate(0,0)"/>
<path d="" fill="#FFFFFF" transform="translate(0,0)"/>
<path d="" fill="#FFFFFF" transform="translate(0,0)"/>
<path d="" fill="#FFFFFF" transform="translate(0,0)"/>
<path d="" fill="#FFFFFF" transform="translate(0,0)"/>
<path d="" fill="#FFFFFF" transform="translate(0,0)"/>
<path d="" fill="#FFFFFF" transform="translate(0,0)"/>
<path d="" fill="#FFFFFF" transform="translate(0,0)"/>
<path d="" fill="#FFFFFF" transform="translate(0,0)"/>
<path d="" fill="#FFFFFF" transform="translate(0,0)"/>
<path d="" fill="#FFFFFF" transform="translate(0,0)"/>
<path d="" fill="#FFFFFF" transform="translate(0,0)"/>
<path d="" fill="#FFFFFF" transform="translate(0,0)"/>
<path d="" fill="#FFFFFF" transform="translate(0,0)"/>
</svg>
